<?xml version="1.0" standalone="no"?>
<!DOCTYPE svg PUBLIC "-//W3C//DTD SVG 1.1//EN" "http://www.w3.org/Graphics/SVG/1.1/DTD/svg11.dtd" >
<svg>
<metadata>
Created by FontForge 20090622 at Wed Nov 23 16:54:00 2016
 By ffonts
1.2, Copyright Copr. Castcraft Software, Inc. 1990-1991.
</metadata>
<defs>
<font id="OPTIOliver-Display" horiz-adv-x="635" >
  <font-face 
    font-family="OPTIOliver-Display"
    font-weight="500"
    font-stretch="normal"
    units-per-em="1000"
    panose-1="0 0 0 0 0 0 0 0 0 0"
    ascent="800"
    descent="-200"
    cap-height="761"
    bbox="-23 -325.274 934.776 1091.87"
    underline-thickness="57"
    underline-position="-75"
    stemh="58"
    stemv="155"
    unicode-range="U+0020-U+2260"
  />
<missing-glyph horiz-adv-x="280" 
 />
    <glyph glyph-name=".notdef" horiz-adv-x="280" 
 />
    <glyph glyph-name="space" unicode=" " horiz-adv-x="196" 
d="M0 0z" />
    <glyph glyph-name="exclam" unicode="!" horiz-adv-x="248" 
d="M108 121c22 13 50 13 73 1c25 -14 38 -37 39 -62c0 -21 -9 -47 -37 -64c-22 -13 -49 -15 -69 -2c-25 13 -40 38 -41 65c0 21 10 45 35 62zM207 326c-1 -55 -5 -102 -34 -120c-15 -9 -35 -9 -51 0c-28 14 -30 61 -32 116l-16 385c-1 40 23 74 62 79c43 5 83 -17 85 -66z
" />
    <glyph glyph-name="quotedbl" unicode="&#x22;" horiz-adv-x="394" 
d="M165 479h-31l-32 175c-5 30 -31 124 -1 163c11 16 28 23 49 22c19 -1 36 -6 49 -27c24 -34 6 -106 -3 -151zM331 479h-31l-32 175c-6 30 -31 124 -1 163c10 16 27 23 48 22c20 -1 36 -6 50 -27c23 -34 5 -106 -3 -151z" />
    <glyph glyph-name="numbersign" unicode="#" horiz-adv-x="717" 
d="M336 739h99l-65 -190h107l68 190h100l-64 -190h125l-28 -87h-128l-40 -112h124l-27 -85h-128l-68 -193h-100l66 191h-107l-70 -191h-101l67 191h-125l27 87h128l37 112h-120l24 87h127zM299 350h108l40 112h-106z" />
    <glyph glyph-name="dollar" unicode="$" horiz-adv-x="634" 
d="M339 842h53l-10 -42c24 -5 49 -9 78 -20c58 -25 97 -68 100 -124c3 -44 -10 -84 -56 -112c-38 -22 -76 -17 -122 13v-69s25 -12 37 -17c71 -28 103 -39 153 -98c53 -61 49 -163 27 -225c-41 -115 -116 -150 -219 -175v-43h-56v37c-97 14 -184 33 -241 144
c-27 51 -29 113 -6 159c25 45 68 64 103 67c32 4 74 -7 99 -36c24 -29 28 -62 22 -84c-5 -15 -16 -36 -27 -43c-18 -12 -28 -8 -32 -3c-3 4 11 6 4 27c-4 12 -17 12 -23 10c-7 -2 -13 -11 -16 -21c-7 -13 -1 -35 10 -54c25 -41 71 -57 106 -57v293s-45 16 -69 29
c-66 33 -108 53 -139 131c-18 45 -17 103 14 157c52 89 131 109 195 114zM274 695c-30 -13 -44 -41 -43 -68c1 -45 49 -91 98 -115l-10 193c-27 0 -37 -7 -45 -10zM385 665c10 -17 21 -25 29 -26c9 -1 15 3 22 9c5 5 5 16 3 21c-6 20 -32 28 -59 36c-2 -16 3 -35 5 -40z
M381 84c15 0 45 16 65 51c14 23 18 54 18 75c-1 48 -21 97 -83 134v-260z" />
    <glyph glyph-name="percent" unicode="%" horiz-adv-x="877" 
d="M681 831h112l-552 -832h-113zM205 840c38 5 95 -4 133 -48c71 -79 72 -232 50 -313c-15 -56 -49 -109 -114 -131c-48 -15 -101 -10 -148 26c-75 60 -80 181 -75 244c4 44 24 162 104 204c19 11 34 16 50 18zM147 493c3 -7 6 -15 8 -18c8 -13 18 -25 31 -33
c21 -12 52 -12 69 -3c46 25 52 107 52 126c1 38 -2 162 -55 196c-15 12 -37 12 -54 3c-42 -20 -54 -78 -58 -109c-1 -20 -3 -93 28 -115c11 -8 22 -8 28 -4c12 5 18 18 19 28c2 19 -6 27 -23 38c2 6 12 8 14 8c4 0 9 0 15 -4c12 -4 22 -10 31 -21c16 -19 19 -42 11 -63
c-9 -27 -30 -40 -51 -44c-30 -6 -44 3 -68 31c-5 -1 2 -14 3 -16zM669 490c39 5 95 -4 134 -48c71 -79 72 -232 50 -313c-15 -57 -49 -109 -114 -131c-48 -16 -102 -10 -148 26c-76 60 -80 181 -76 244c5 44 25 162 105 204c18 10 34 16 49 18zM612 143c3 -8 6 -15 8 -18
c8 -13 17 -25 31 -33c20 -12 51 -12 69 -3c45 25 52 107 52 126c1 38 -2 162 -55 196c-16 12 -37 12 -54 3c-42 -20 -55 -78 -58 -109c-1 -20 -3 -93 28 -115c11 -8 22 -8 28 -4c12 5 18 18 19 28c2 18 -6 27 -23 38c2 6 11 7 13 7c5 0 10 0 16 -3c12 -4 22 -10 31 -21
c15 -19 19 -42 11 -64c-9 -26 -30 -39 -51 -43c-30 -6 -44 3 -69 31c-4 -1 3 -14 4 -16z" />
    <glyph glyph-name="ampersand" unicode="&#x26;" horiz-adv-x="790" 
d="M122 779c0 0 139 -6 229 -6c105 1 269 14 269 14c34 -75 -33 -162 -97 -237l-91 -101s16 -13 33 -13c58 69 151 143 224 130c37 -6 71 -38 86 -78c11 -30 13 -86 -13 -118c-23 -29 -54 -37 -81 -33c-23 3 -49 15 -59 42c-6 14 -7 35 5 49c1 2 3 5 6 5c5 0 5 -9 11 -9
c4 0 6 2 9 4c5 4 8 7 9 13c2 16 -8 26 -29 22c-9 -2 -15 -8 -23 -19c-9 -10 -31 -54 -31 -54l-13 -28c90 -46 210 -123 220 -231c3 -41 -8 -89 -56 -126c-39 -30 -91 -40 -135 -24c-42 16 -74 46 -84 90c-5 25 0 63 25 88c18 17 47 26 72 20c20 -5 41 -17 48 -36
c2 -7 2 -15 0 -21c-2 -5 -4 -12 -13 -14c-10 -1 -6 9 -16 9c-5 0 -8 -4 -9 -10c-2 -8 3 -15 15 -18c5 -1 16 -2 25 2c16 7 25 22 24 40c-1 50 -85 76 -120 90l-33 14l-7 -19c-34 -88 -68 -207 -175 -240c-55 -16 -150 -9 -207 34c-60 47 -87 116 -85 173
c4 92 41 134 146 240v9c-89 103 -132 248 -79 347zM337 529c0 0 76 54 110 119h-198c20 -57 31 -75 88 -119zM246 236c-15 -32 -20 -76 -2 -99c15 -20 36 -23 51 -20c49 10 67 98 77 132l8 24c4 9 8 19 13 29l-70 40c-40 -46 -65 -80 -77 -106z" />
    <glyph glyph-name="quotesingle" unicode="'" horiz-adv-x="215" 
d="M81 539l-20 24c25 20 56 43 70 79c-40 12 -66 24 -74 69c-5 24 1 51 26 72c19 17 48 23 74 12c30 -11 50 -39 54 -69c8 -63 -53 -136 -130 -187z" />
    <glyph glyph-name="parenleft" unicode="(" horiz-adv-x="312" 
d="M334 782c-69 -20 -70 -69 -73 -126v-534c4 -55 -4 -118 73 -140c-56 -14 -112 -11 -159 25c-74 58 -70 142 -73 205v364c4 66 11 150 95 198c50 28 89 26 137 8z" />
    <glyph glyph-name="parenright" unicode=")" horiz-adv-x="312" 
d="M166 774c85 -48 91 -132 95 -198v-364c-3 -63 1 -147 -72 -205c-47 -36 -103 -39 -159 -25c76 22 68 85 72 140v534c-3 57 -4 106 -72 126c47 18 87 20 136 -8z" />
    <glyph glyph-name="asterisk" unicode="*" horiz-adv-x="303" 
d="M116 800c12 -6 47 -12 60 -11c-1 -10 -3 -24 -2 -38c0 -4 6 -27 11 -35c6 33 7 37 1 74c10 1 41 6 56 11c8 -17 21 -43 26 -50c-7 -3 -28 -14 -36 -19c-8 -6 -25 -22 -27 -31c33 10 44 20 68 37c7 -13 29 -38 36 -47l-31 -42h-4c-36 21 -39 19 -70 26c3 -9 24 -22 33 -25
l35 -16s-15 -23 -22 -51c-20 4 -56 1 -56 1c2 21 6 32 -8 80c-5 -15 -9 -29 -10 -38c-1 -12 2 -30 3 -41c0 0 -34 -2 -60 -8c-3 19 -11 40 -16 53c11 5 21 10 32 18c5 3 27 18 27 27c-39 -13 -48 -23 -67 -35c-13 19 -27 36 -40 47c11 12 32 45 32 45c31 -19 36 -22 77 -30
c-35 29 -47 33 -69 40c8 15 16 37 21 58z" />
    <glyph glyph-name="plus" unicode="+" horiz-adv-x="692" 
d="M299 570h150v-210h213v-147h-213v-213h-150v211h-213v149h213v210z" />
    <glyph glyph-name="comma" unicode="," horiz-adv-x="215" 
d="M77 -110l-18 26c24 19 40 29 67 77c-39 13 -66 27 -72 70c-4 24 2 54 29 74c21 17 51 20 75 10c30 -14 49 -41 51 -75c4 -61 -58 -135 -132 -182z" />
    <glyph glyph-name="hyphen" unicode="-" horiz-adv-x="370" 
d="M52 380c0 0 96 -6 158 -6c61 0 157 6 157 6s-6 -42 -6 -69c0 -28 6 -71 6 -71s-93 6 -153 6c-63 0 -162 -6 -162 -6s6 41 6 68c0 28 -6 72 -6 72z" />
    <glyph glyph-name="period" unicode="." horiz-adv-x="215" 
d="M117 142c18 6 47 3 69 -15c22 -17 31 -40 29 -66c-2 -23 -16 -47 -42 -61c-20 -10 -48 -12 -70 0s-38 34 -41 61c-3 34 13 68 55 81z" />
    <glyph glyph-name="slash" unicode="/" horiz-adv-x="669" 
d="M506 800h113l-413 -832h-113z" />
    <glyph glyph-name="zero" unicode="0" 
d="M302 799c64 9 158 -7 222 -79c119 -133 120 -386 83 -520c-24 -95 -82 -182 -191 -219c-78 -26 -168 -17 -246 44c-126 99 -133 300 -125 405c7 75 42 268 173 340c32 17 57 24 84 29zM205 222c5 -12 11 -24 14 -29c13 -23 29 -41 52 -56c34 -20 85 -19 115 -4
c76 42 85 178 86 210c2 63 -3 268 -91 325c-26 18 -62 18 -91 5c-70 -35 -91 -132 -95 -183c-2 -32 -5 -153 46 -189c17 -13 36 -13 47 -7c19 9 29 29 30 47c3 31 -10 45 -37 63c3 10 19 13 23 13c6 0 14 -1 26 -5c19 -7 35 -18 50 -36c27 -32 32 -70 20 -105
c-17 -46 -50 -66 -87 -74c-50 -9 -72 5 -113 53c-7 -2 2 -24 5 -28z" />
    <glyph glyph-name="one" unicode="1" 
d="M426 126c1 -122 55 -91 46 -124c-1 -4 -13 -1 -25 -1c-10 1 -57 4 -103 4s-93 -4 -104 -4c-12 0 -25 -3 -26 1c-7 34 44 1 46 124c0 0 4 164 4 268c0 76 -4 195 -4 195c-31 -23 -62 -25 -94 -16c-32 10 -44 39 -48 61c88 27 111 41 138 142c81 -8 84 -14 164 -1
c7 -1 6 -7 6 -23c0 0 -5 -172 -5 -283c0 -133 5 -343 5 -343z" />
    <glyph glyph-name="two" unicode="2" 
d="M452 128c-22 -1 -44 -2 -59 23c-11 14 -11 39 0 62c9 22 30 41 50 45c15 2 23 -1 26 -3c11 -6 14 -13 14 -23c0 -5 -5 -9 -10 -9c-8 0 -16 7 -23 0c-2 -2 -2 -6 -2 -10c0 -12 14 -15 27 -15c8 0 20 4 28 10c29 18 33 39 37 76c8 9 17 7 24 5c9 -3 19 -7 26 -14
c21 -23 16 -63 10 -100c-13 -83 -13 -114 13 -176c0 0 -171 9 -279 9c-107 0 -274 -9 -274 -9c19 16 28 28 31 94c5 111 30 174 150 230c104 50 184 111 191 203c2 26 -13 80 -46 106c-26 21 -66 27 -96 17c-22 -7 -44 -26 -50 -51c-4 -15 -4 -34 9 -48c8 -10 20 -13 29 -13
c10 0 17 7 18 14c4 20 -10 26 -27 24c-6 13 1 23 8 32c4 6 12 11 26 14c20 5 45 -3 62 -19c20 -19 29 -59 21 -89c-10 -46 -38 -80 -88 -98c-42 -14 -105 -12 -151 26c-49 39 -58 115 -52 160c11 78 43 127 126 163s205 19 277 -32c86 -59 112 -146 107 -220
c-6 -113 -51 -151 -179 -228l-47 -28c-27 -16 -115 -70 -111 -119c1 -16 8 -33 27 -42c30 -14 100 3 157 33z" />
    <glyph glyph-name="three" unicode="3" 
d="M486 455c96 -62 121 -125 121 -215c0 -71 -23 -164 -115 -225c-84 -54 -191 -60 -278 -23c-76 32 -131 105 -144 177c-7 45 -1 113 51 161c39 37 103 52 149 41c32 -8 64 -27 77 -69c9 -26 7 -55 -11 -80c-16 -18 -36 -30 -54 -29c-10 1 -24 6 -30 19c-5 12 -2 19 15 36
c9 13 12 24 6 33c-4 7 -14 14 -29 15c-15 2 -32 -8 -44 -24c-13 -19 -15 -48 -4 -75c15 -35 45 -54 80 -61c36 -7 100 8 138 47c35 37 43 98 34 135c-8 35 -32 69 -75 85c-15 5 -26 7 -42 8c-11 1 -23 -2 -32 0c-11 2 -13 5 -13 12c0 5 5 9 5 9c56 26 99 64 106 139
c2 30 -8 65 -37 88c-23 17 -57 19 -81 8c-22 -8 -41 -25 -46 -47c-3 -13 0 -24 9 -32c4 -3 12 -9 23 -5c24 8 9 20 21 32c14 3 24 -5 32 -25c2 -5 4 -21 3 -40c-3 -30 -22 -67 -59 -85c-30 -16 -64 -19 -95 0c-43 25 -60 68 -61 110c-3 53 20 115 85 161
c67 47 146 47 214 19c73 -31 120 -78 132 -147c9 -54 -2 -94 -51 -153z" />
    <glyph glyph-name="four" unicode="4" 
d="M261 127v69c0 67 1 96 -10 107c-5 5 -43 6 -82 6h-19c-70 0 -94 -4 -102 15c-7 15 9 32 47 88c65 95 150 263 150 263c29 52 47 95 94 106c24 6 59 -2 80 -22c28 -23 35 -53 31 -85c-9 -91 -97 -152 -162 -209c-20 -18 -49 -41 -59 -49c47 -44 108 -35 161 -15
c33 10 83 43 90 76c2 10 3 18 -5 29c-6 9 -16 7 -23 9c-1 7 0 16 17 27c6 4 14 9 30 10c31 2 66 -11 95 -43c25 -30 34 -68 26 -106c-8 -37 -30 -64 -71 -82c-18 -8 -38 -12 -57 -14c-1 -1 -55 -5 -58 -7c-8 -8 -7 -22 -7 -95v-78c1 -123 55 -92 46 -125
c-1 -4 -13 -1 -25 -1c-10 1 -61 4 -110 4c-44 0 -87 -4 -97 -4c-12 0 -25 -3 -26 1c-7 34 44 1 46 125z" />
    <glyph glyph-name="five" unicode="5" 
d="M122 791l224 -23c85 -10 171 -16 220 23c7 -2 13 -20 15 -27c3 -11 5 -22 6 -28c5 -40 -6 -83 -44 -109c-68 -47 -188 12 -248 42l-22 10c7 -62 7 -91 -5 -156c82 14 140 21 220 -34c104 -73 123 -199 118 -270c-3 -90 -38 -162 -137 -219c-70 -40 -191 -44 -265 -5
c-84 44 -123 109 -129 188c-4 47 13 115 63 153c47 33 107 30 149 14c45 -17 71 -46 80 -87c5 -23 -2 -66 -21 -83c-14 -14 -31 -20 -45 -17c-31 8 -31 29 -32 45c9 1 19 2 22 17c2 10 -4 22 -14 24c-5 1 -14 3 -22 -3c-11 -8 -14 -26 -14 -45c1 -33 14 -54 41 -70
c26 -15 67 -14 93 0c53 29 62 77 65 121c3 49 -20 115 -73 154c-61 43 -169 31 -240 1l-4 -1c-12 5 -6 17 -6 28c0 0 11 105 11 173c0 70 -10 179 -10 179z" />
    <glyph glyph-name="six" unicode="6" 
d="M364 620c4 0 16 -3 21 -1c4 2 16 5 20 17c3 10 1 24 -8 37c-11 15 -32 22 -54 21c-31 -2 -54 -19 -73 -58c-53 -103 -52 -364 4 -455c25 -41 56 -61 95 -61c33 0 70 13 93 50c18 31 18 83 4 112c-8 17 -21 33 -40 34c-13 1 -23 -2 -29 -13c-7 -12 -7 -27 11 -38
c4 -2 9 -2 16 0c1 -19 -16 -42 -48 -44c-21 -1 -43 9 -63 35c-25 34 -27 85 -10 126c21 57 64 83 116 93c40 7 100 -1 144 -48c61 -67 69 -181 49 -256c-27 -97 -84 -161 -186 -192c-77 -23 -182 -14 -261 54c-110 94 -109 324 -96 415c17 109 52 269 200 334
c66 29 149 25 212 -19c45 -31 73 -81 71 -121c-1 -30 -16 -68 -56 -89c-31 -18 -72 -19 -101 -3c-14 7 -26 18 -32 32c-7 14 -5 25 1 38z" />
    <glyph glyph-name="seven" unicode="7" 
d="M383 133c-4 12 -18 13 -32 7c-4 3 -11 16 -11 20c-2 10 -2 17 -1 23c2 11 7 30 18 43c24 28 60 38 92 32c53 -11 80 -33 92 -88c10 -39 -3 -97 -44 -139c-63 -63 -166 -74 -240 -53c-79 23 -133 79 -150 155c-27 127 32 220 172 353l84 79c45 43 56 64 73 108
c-66 -45 -96 -57 -173 -31c-39 13 -85 18 -115 -6c-17 -13 -20 -24 -22 -49h-31s-1 69 -4 112c-2 31 -8 83 -8 83c-1 11 6 9 12 9c0 0 249 -4 394 -2c56 1 97 11 101 10c12 0 13 -4 16 -14c9 -23 -3 -86 -24 -134c-22 -50 -59 -91 -97 -136l-82 -94
c-58 -67 -139 -189 -113 -268c6 -20 23 -43 47 -50c12 -4 24 -3 32 1c11 6 18 18 14 29z" />
    <glyph glyph-name="eight" unicode="8" 
d="M481 425c68 -22 105 -56 124 -125c18 -63 -2 -175 -50 -232c-70 -83 -181 -107 -256 -99c-80 8 -159 44 -207 134c-30 56 -41 165 -10 222c25 50 55 69 110 96c-71 44 -91 87 -91 153c0 59 29 136 103 178c68 39 195 41 264 3c73 -41 99 -96 101 -163
c2 -70 -12 -102 -88 -167zM259 552c8 -28 27 -53 53 -61c24 -8 52 -1 70 14c32 28 33 72 29 100c-4 32 -17 62 -47 76c-22 10 -51 7 -71 -5c-42 -28 -43 -92 -34 -124zM265 122c8 -6 17 -12 31 -19c19 -7 42 -8 59 -5c39 6 71 32 87 72c18 44 17 120 -14 164
c-28 37 -66 48 -102 45c-35 -2 -69 -24 -87 -61c-13 -25 -17 -59 -7 -76c13 -21 38 -30 57 -31c22 0 35 8 41 16c6 11 3 26 -12 42c6 3 24 2 28 1c14 -5 22 -11 27 -17c15 -16 17 -37 13 -58c-6 -28 -26 -49 -52 -60c-30 -11 -52 -6 -87 18c-2 -7 13 -26 18 -31z" />
    <glyph glyph-name="nine" unicode="9" 
d="M275 183c-8 5 12 17 -11 26c-3 1 -11 -1 -15 -4c-7 -6 -11 -11 -11 -26c0 -14 7 -27 12 -32c18 -17 38 -27 65 -24c41 4 75 39 98 85c43 87 55 312 1 400c-25 40 -53 58 -90 58c-33 0 -62 -13 -86 -51c-15 -23 -22 -63 -10 -89c10 -20 27 -34 47 -36c14 -1 33 5 44 19
c15 18 15 46 -4 63c2 7 8 12 20 12c4 0 14 -1 25 -10c26 -21 32 -50 29 -82c-3 -44 -29 -88 -81 -115c-46 -24 -109 -23 -159 5c-61 35 -85 95 -88 150c-3 73 23 155 105 214c72 52 186 59 259 31c109 -44 158 -133 177 -234c26 -128 17 -376 -115 -504
c-68 -66 -148 -82 -220 -65c-74 18 -123 60 -150 136c-15 43 -19 106 16 150c27 35 67 49 99 46c28 -3 60 -17 79 -52c8 -17 12 -41 4 -56c-3 -5 -9 -15 -19 -17c-8 -2 -15 -1 -21 2z" />
    <glyph glyph-name="colon" unicode=":" horiz-adv-x="215" 
d="M115 557c18 6 47 3 69 -15c22 -17 31 -40 29 -66c-2 -22 -16 -46 -43 -61c-19 -10 -47 -12 -69 0c-22 13 -38 34 -41 61c-3 34 13 68 55 81zM115 142c18 6 47 3 69 -15c22 -17 31 -40 29 -66c-2 -23 -16 -47 -43 -61c-19 -10 -47 -12 -69 0s-38 34 -41 61
c-3 34 13 68 55 81z" />
    <glyph glyph-name="semicolon" unicode=";" horiz-adv-x="215" 
d="M117 565c18 6 47 3 69 -14c22 -18 31 -41 29 -66c-2 -23 -16 -47 -42 -61c-20 -11 -48 -13 -70 0c-22 12 -38 34 -41 61c-3 34 13 68 55 80zM84 -110l-19 26c24 19 40 29 67 77c-39 13 -66 27 -72 70c-4 24 2 54 29 74c22 17 51 20 75 10c30 -14 49 -41 51 -75
c4 -61 -58 -135 -131 -182z" />
    <glyph glyph-name="less" unicode="&#x3c;" horiz-adv-x="543" 
d="M68 344l455 169v-120l-293 -105l293 -104v-121l-455 169v112z" />
    <glyph glyph-name="equal" unicode="=" horiz-adv-x="693" 
d="M56 454h622v-127h-622v127zM56 247h622v-126h-622v126z" />
    <glyph glyph-name="greater" unicode="&#x3e;" horiz-adv-x="543" 
d="M527 344v-112l-455 -169v121l293 104l-293 105v120z" />
    <glyph glyph-name="question" unicode="?" horiz-adv-x="504" 
d="M353 398c-35 -17 -89 -30 -97 -71c-3 -15 1 -31 12 -41c7 -7 17 -11 30 -10c10 1 20 8 21 15c4 16 -5 21 -19 30c0 11 15 26 26 29c9 4 21 7 37 5c21 -2 45 -16 57 -42c11 -22 8 -54 -8 -77c-29 -46 -98 -62 -138 -62c-41 0 -114 15 -148 69c-21 32 -25 75 -7 117
c20 47 45 67 80 86c65 36 124 61 127 139c1 29 -5 66 -42 93c-15 11 -36 9 -52 4c-12 -4 -21 -17 -23 -31c-2 -13 2 -21 9 -26c11 -10 21 -6 33 1c14 -9 20 -23 24 -37c3 -13 1 -26 -4 -38c-13 -29 -43 -50 -76 -55c-34 -5 -72 2 -103 38c-28 32 -36 91 -23 133
c23 71 79 110 146 127c54 14 160 14 219 -44c53 -52 62 -130 48 -190c-12 -57 -39 -119 -129 -162zM279 142c19 6 47 3 69 -15c22 -17 31 -40 29 -66c-2 -23 -15 -47 -42 -61c-20 -10 -48 -12 -70 0s-38 34 -41 61c-3 34 14 68 55 81z" />
    <glyph glyph-name="at" unicode="@" horiz-adv-x="733" 
d="M461 218c-35 -57 -77 -75 -122 -74c-32 0 -78 15 -103 57c-29 48 -17 129 7 175c32 65 92 110 152 115c25 2 71 -4 94 -35c4 -7 7 -14 12 -24l14 46h102l-50 -171c-4 -18 -28 -85 -12 -102c8 -9 20 -12 37 -9c43 10 68 49 85 90c27 66 31 153 -17 221
c-58 80 -177 98 -240 96c-91 -5 -182 -44 -247 -162c-48 -85 -53 -205 -6 -291c50 -93 139 -129 220 -136c94 -6 175 16 268 72l22 -31c-143 -90 -313 -118 -453 -47c-106 55 -163 147 -172 256c-8 102 24 224 145 310c112 80 282 89 391 42v0c81 -36 137 -111 149 -198
c8 -62 -10 -179 -83 -236c-38 -32 -97 -48 -142 -32c-30 12 -45 32 -51 68zM327 245c-1 -20 3 -35 19 -46c15 -9 33 -8 47 0c48 24 79 148 82 180c2 19 -1 41 -17 53c-13 10 -33 10 -44 6c-54 -23 -87 -165 -87 -193z" />
    <glyph glyph-name="A" unicode="A" horiz-adv-x="747" 
d="M348 379c-8 -21 -42 -98 -21 -118c8 -7 29 -8 52 -8c8 0 18 0 26 1c11 5 16 2 24 14c0 8 0 7 -2 16l-47 168zM277 529c4 12 37 105 15 130c-6 7 -15 11 -28 8c-5 -1 -13 -6 -16 -16c-6 -21 7 -30 22 -34c-3 -22 -3 -42 -33 -55c-13 -5 -30 -5 -49 8c-33 23 -46 64 -46 94
c0 40 14 87 67 123c50 35 131 45 187 23c80 -30 97 -100 117 -178l109 -420c7 -24 16 -54 22 -66c14 -33 27 -45 51 -42c16 2 27 13 27 34c0 10 1 21 -14 41c-3 4 0 8 6 7c14 -2 24 -4 40 -24c7 -8 13 -22 16 -41c5 -33 -6 -78 -40 -113c-30 -31 -98 -49 -142 -37
c-55 16 -66 43 -101 115c-23 45 -84 64 -120 68c-26 3 -75 3 -99 -28c-83 -113 32 -91 22 -124c-1 -4 -13 -1 -25 -1c-19 1 -63 4 -102 4c-27 0 -77 -4 -100 -4c-10 0 -25 -3 -26 1c-7 34 49 -3 96 129z" />
    <glyph glyph-name="B" unicode="B" horiz-adv-x="664" 
d="M269 480c2 -17 6 -20 27 -21c27 -1 62 8 86 35c30 32 39 97 31 128c-9 32 -30 53 -61 61c-14 4 -33 4 -48 1c-22 -3 -28 -13 -31 -36c-8 -52 -5 -156 -4 -168zM115 628c1 80 -8 89 -63 129c1 6 -1 5 12 5c3 0 63 -7 125 -7c0 0 96 3 166 14c90 13 142 13 195 -58
c33 -47 33 -112 13 -158c-26 -61 -80 -83 -121 -106c64 1 127 7 175 -66c44 -68 42 -203 13 -266c-38 -85 -95 -135 -178 -146c-35 -4 -89 6 -126 51c-24 30 -35 83 -23 115c10 27 33 52 64 58c15 3 28 3 35 -1c11 -7 23 -15 23 -33c-17 -8 -41 -14 -41 -40
c-1 -8 3 -18 15 -24c7 -4 18 -4 31 4c29 19 33 69 32 97c-2 44 -16 139 -86 174c-22 10 -66 14 -91 -1c-26 -19 -25 -42 -25 -116v-139c0 -74 -3 -71 20 -107c0 0 1 -3 0 -5s-5 -1 -5 -1c-17 0 -61 7 -100 7c-62 0 -122 -7 -125 -7c-14 0 -12 -1 -13 5c56 40 62 50 63 129z
" />
    <glyph glyph-name="C" unicode="C" horiz-adv-x="893" 
d="M782 257c-68 -40 -156 -42 -220 8c-39 31 -64 99 -50 147c10 32 34 57 68 66c22 5 52 5 73 -14c6 -6 13 -17 17 -31c4 -7 1 -26 -3 -33c-12 2 -28 -1 -31 -25c-1 -9 3 -20 13 -25c6 -4 13 -6 26 -3c20 5 31 30 36 56c12 63 -23 170 -90 235c-52 49 -139 70 -202 53
c-77 -20 -124 -69 -150 -151c-32 -100 -13 -294 70 -393c48 -60 111 -83 164 -78c20 2 100 19 76 93c-5 16 4 18 17 14c92 -29 113 -23 220 15c0 0 5 2 7 -1c4 -6 -2 -13 -2 -13l-13 -19c-51 -83 -31 -98 -120 -146c-49 -25 -118 -36 -165 -42c-105 -11 -248 10 -359 136
c-90 103 -113 287 -85 388c36 135 118 233 263 282c130 44 284 28 397 -59c99 -78 143 -189 137 -279c-6 -75 -25 -138 -94 -181z" />
    <glyph glyph-name="D" unicode="D" horiz-adv-x="851" 
d="M246 99c5 -28 10 -64 -24 -92c-22 -18 -49 -24 -74 -15c-43 15 -68 51 -79 97c-8 39 2 112 43 151c33 32 80 38 119 27c92 -25 82 -102 156 -152c40 -27 88 -22 125 -4c83 37 118 146 126 212c10 76 -5 257 -97 332c-48 40 -135 46 -188 28c-65 -23 -111 -64 -126 -130
c-5 -23 -9 -55 11 -75c11 -9 26 -15 44 -10c16 5 32 18 38 37c2 12 4 24 -3 40c-8 19 -33 25 -33 25c5 12 11 21 27 27c3 1 12 5 33 2c13 -2 26 -7 40 -18c12 -10 23 -25 29 -38c24 -46 21 -104 1 -141c-30 -57 -72 -84 -127 -91c-52 -8 -112 3 -161 53
c-60 63 -44 151 -34 212l9 58c5 47 20 90 -15 126c-13 13 -2 24 8 23c120 -12 156 -4 216 3c176 22 315 15 436 -135c99 -124 114 -291 70 -418c-52 -148 -145 -235 -294 -262c-52 -9 -171 -2 -226 65c-10 12 -19 27 -31 52c-11 26 -19 42 -35 47c-8 3 -18 3 -28 -6
c-7 -7 -10 -16 -8 -26c2 -7 10 -17 23 -18c12 -1 16 7 29 14z" />
    <glyph glyph-name="E" unicode="E" horiz-adv-x="619" 
d="M191 5c-39 0 -77 -4 -100 -4c-11 0 -25 -3 -26 1c-7 34 45 1 47 124c0 0 4 154 4 252c0 100 -4 258 -4 258c-2 123 -54 90 -47 124c1 4 15 2 26 1c23 -1 61 -5 100 -4c72 1 136 7 181 13c63 7 128 19 159 -32c20 -32 19 -75 -4 -110c-34 -54 -98 -73 -146 -67
c-8 1 -19 3 -28 6c-10 4 -23 10 -23 19c30 18 41 33 41 58c0 17 -7 36 -27 48c-2 1 -10 6 -31 6c-6 0 -27 0 -33 -7c-11 -71 -9 -122 -9 -125v-61c54 -61 110 -64 161 -50c38 10 57 19 88 64c13 -52 17 -121 -29 -173c-31 -33 -72 -45 -110 -39c-16 2 -38 10 -57 22
c-10 7 -29 22 -42 39c-9 11 -13 14 -13 3v-98c0 -2 2 -156 58 -188c18 -11 47 -10 66 1c18 11 30 30 30 49c0 14 -7 29 -21 39c-15 9 -26 5 -50 -6c14 46 40 68 78 81c34 12 84 13 122 -10c40 -26 52 -59 56 -100c4 -35 -5 -81 -41 -115c-57 -54 -164 -44 -217 -37
c0 0 -97 17 -159 18z" />
    <glyph glyph-name="F" unicode="F" horiz-adv-x="533" 
d="M262 126c0 -122 56 -91 47 -124c-1 -4 -14 -1 -25 -1c-20 1 -63 4 -102 4c-27 0 -78 -4 -100 -4c-12 0 -25 -3 -26 1c-7 34 44 1 46 124c0 0 4 154 4 252c0 100 -4 258 -4 258c0 123 -53 90 -46 124c1 4 14 2 26 1c22 -1 61 -4 100 -4c74 0 125 0 180 8
c35 6 120 33 160 -27c20 -31 18 -75 -4 -110c-35 -54 -99 -73 -146 -67c-8 1 -20 3 -28 6c-10 4 -24 10 -24 19c30 18 42 33 42 58c0 17 -8 36 -27 48c-2 1 -11 6 -31 6c-6 0 -27 0 -33 -7c-12 -71 -10 -105 -10 -125c0 -117 111 -125 162 -111c38 10 56 19 87 64
c14 -52 18 -121 -29 -173c-31 -33 -71 -45 -109 -39c-17 2 -38 10 -57 22c-10 7 -29 22 -42 39c-10 11 -14 14 -14 3z" />
    <glyph glyph-name="G" unicode="G" horiz-adv-x="889" 
d="M693 771c18 13 35 13 46 13c18 0 37 -3 50 -13c21 -15 32 -32 28 -57c-6 -37 -17 -41 -3 -99c-78 -65 -127 -61 -209 -13l-18 12c-87 54 -118 80 -199 46c-78 -35 -111 -103 -124 -175c-15 -89 7 -250 99 -336c54 -53 122 -64 181 -49c75 21 130 78 155 155
c10 27 20 93 -3 122c-9 11 -20 18 -34 18c-10 0 -22 -7 -26 -17c-3 -6 -4 -15 2 -25c9 -10 22 -17 44 -12c-2 -40 -14 -68 -51 -87c-26 -12 -57 -11 -87 8c-44 27 -59 74 -58 112c0 43 25 112 82 146c55 35 132 31 190 1c75 -36 112 -98 118 -172c8 -87 -31 -204 -131 -281
c-145 -108 -282 -122 -418 -72c-133 50 -227 177 -252 297c-21 107 5 294 118 401c95 90 218 126 328 96c30 -8 54 -17 78 -33c48 -31 63 -51 78 -53c7 -2 20 2 31 14c13 18 3 37 -15 53z" />
    <glyph glyph-name="H" unicode="H" horiz-adv-x="710" 
d="M263 110c6 -104 56 -77 47 -108c-1 -4 -14 -1 -25 -1c-20 1 -63 4 -102 4c-27 0 -78 -4 -100 -4c-12 0 -25 -3 -26 1c-7 34 44 1 46 124c0 0 4 154 4 252c0 100 -4 258 -4 258c-2 123 -53 90 -46 124c1 4 14 2 26 1c22 -1 73 -4 100 -4c39 0 82 3 102 4c11 0 24 3 25 -1
c9 -33 -47 -1 -47 -124c0 -12 1 -24 4 -38c6 -39 20 -81 63 -101c15 -7 34 -9 52 -9c19 0 33 2 49 9c42 20 57 62 63 101c2 13 4 25 3 37c0 123 -54 90 -47 124c1 4 15 2 26 1c23 -1 74 -4 100 -4c40 0 83 3 103 4c11 0 23 3 25 -1c9 -33 -46 -1 -47 -124
c0 0 -3 -155 -3 -252c0 -100 3 -258 3 -258c1 -122 56 -91 47 -124c-2 -4 -14 -1 -25 -1c-20 1 -63 4 -103 4c-26 0 -77 -4 -100 -4c-11 0 -25 -3 -26 1c-7 32 42 4 47 106v86c0 26 6 142 -50 177c-34 20 -105 20 -134 2c-55 -35 -50 -151 -50 -177v-85z" />
    <glyph glyph-name="I" unicode="I" horiz-adv-x="309" 
d="M100 636c-2 123 -54 90 -46 124c1 4 14 2 26 1c22 -1 73 -4 100 -4c39 0 82 3 102 4c11 0 24 3 25 -1c9 -33 -46 -1 -47 -124c0 0 -3 -155 -3 -252c0 -100 3 -258 3 -258c1 -122 56 -91 47 -124c-1 -4 -14 -1 -25 -1c-20 1 -63 4 -102 4c-27 0 -78 -4 -100 -4
c-12 0 -25 -3 -26 1c-8 34 44 1 46 124c0 0 4 154 4 252c0 100 -4 258 -4 258z" />
    <glyph glyph-name="J" unicode="J" horiz-adv-x="540" 
d="M324 675c0 123 -47 88 -43 124c0 4 14 2 26 1c23 -1 73 -5 100 -5c39 0 84 3 103 5c12 1 25 3 25 -1c0 -40 -42 -3 -42 -124c0 0 -3 -113 -3 -184c0 -90 3 -230 3 -230c0 -66 6 -195 -105 -262c-58 -35 -140 -43 -204 -9c-89 46 -114 113 -118 190c-2 38 6 99 56 132
c27 18 64 20 92 6c35 -16 56 -49 60 -85c2 -16 1 -31 -15 -66c-9 20 -34 22 -48 16c-13 -5 -24 -19 -26 -40c-1 -16 -2 -31 13 -51c9 -10 30 -20 42 -20c11 0 27 1 37 8c41 25 47 88 47 140c0 0 3 142 3 231c0 87 -3 224 -3 224z" />
    <glyph glyph-name="K" unicode="K" horiz-adv-x="729" 
d="M317 11c0 0 4 -3 2 -8s-7 -3 -7 -3c-110 15 -163 15 -266 -1c0 0 -3 1 -4 4c-1 4 1 7 1 7c65 41 72 79 72 154c0 0 4 165 4 269c0 76 -4 197 -4 197c0 54 2 114 -63 154c0 0 -2 3 -1 7c1 3 4 4 4 4c102 -16 146 -16 256 4c0 0 5 2 7 -4c2 -5 -2 -8 -2 -8
c-69 -50 -62 -130 -62 -241c56 120 126 231 269 253c45 6 108 3 156 -56c45 -56 45 -145 25 -204c-25 -66 -62 -108 -127 -120c-33 -6 -73 -1 -105 36c-23 25 -29 64 -20 94c5 13 13 30 24 36c22 -25 37 -40 65 -34c19 3 38 16 44 37c6 16 4 36 -11 54c-18 23 -44 28 -69 25
c-50 -7 -88 -47 -112 -106c-44 -104 -29 -105 47 -223l162 -239c31 -45 74 -69 115 -88c0 0 4 -3 3 -8s-7 -4 -7 -4c-76 12 -193 12 -283 0c0 0 -4 1 -5 4c-1 4 2 8 2 8c5 2 16 9 18 11c22 17 2 41 -22 86l-168 259v-154c0 -102 -7 -151 62 -202z" />
    <glyph glyph-name="L" unicode="L" horiz-adv-x="616" 
d="M80 1c-12 0 -25 -3 -26 1c-8 34 44 1 46 124c0 0 4 154 4 252c0 100 -4 258 -4 258c-2 123 -54 90 -46 124c1 4 14 2 26 1c22 -1 73 -4 100 -4c39 0 91 3 110 4c12 0 24 3 25 -1c9 -33 -46 -1 -46 -124c0 0 -5 -155 -4 -252c0 0 -1 -109 4 -173c3 -44 2 -80 34 -110
c35 -33 87 -21 129 6c58 39 76 132 64 183c-4 20 -14 33 -28 36c-6 1 -17 0 -26 -10c-19 -24 1 -70 1 -93c0 -21 -10 -41 -33 -54c-16 -8 -42 -9 -62 5c-38 25 -37 59 -36 66c3 21 21 29 22 17c1 -15 14 -28 29 -28c13 0 20 15 18 26c-1 4 -4 15 -12 34
c-32 80 -45 125 -12 187c19 37 50 58 86 63c31 5 75 -4 107 -35c56 -57 45 -138 39 -205c0 0 -15 -93 -17 -174c2 -121 55 -90 47 -124c-1 -4 -15 -1 -26 -1c-4 0 -129 5 -255 5c-123 0 -247 -4 -258 -4z" />
    <glyph glyph-name="M" unicode="M" horiz-adv-x="942" 
d="M596 631c51 134 -14 100 -4 130c1 4 14 2 26 1c11 -1 62 -7 113 -6c51 0 103 6 112 6c11 0 24 3 25 -1c12 -33 -66 3 -52 -124l49 -439c21 -210 77 -162 69 -197c-1 -3 -16 -3 -26 -1c-20 4 -67 5 -106 5c-27 0 -78 -4 -101 -4c-11 0 -24 -3 -25 1c-6 34 61 21 46 124
l-44 317l-182 -456l-185 457s-31 -222 -40 -319c-12 -118 55 -91 46 -124c-1 -4 -13 -1 -25 -1c-19 1 -35 4 -74 4c-27 0 -78 -4 -100 -4c-12 0 -25 -3 -26 1c-7 34 30 -18 56 125c31 172 63 433 63 433c1 5 10 75 -3 90c-3 3 -13 8 -24 5c-6 -2 -15 -8 -17 -19
c-2 -7 -1 -15 6 -23c7 -11 16 -11 23 -15c2 -5 4 -11 -1 -28c-3 -5 -10 -13 -26 -20c-17 -10 -42 -9 -62 4c-38 19 -52 55 -56 92c-3 34 7 81 50 117c50 42 112 47 169 30c96 -27 113 -80 146 -171l85 -234z" />
    <glyph glyph-name="N" unicode="N" horiz-adv-x="695" 
d="M685 2c-1 -4 -8 -3 -26 -1c-10 1 -57 4 -104 4c-49 0 -98 -3 -109 -4c-11 0 -23 -3 -25 1c-9 33 68 0 0 131l-86 170l-106 190s-3 -107 -3 -175c0 -75 3 -192 3 -192c0 -122 56 -91 47 -124c-1 -4 -14 -1 -25 -1c-10 1 -45 4 -82 4c-35 0 -70 -4 -81 -4
c-12 0 -25 -3 -26 1c-7 34 46 1 46 124c0 0 5 160 5 262c0 98 -5 250 -5 250c0 123 -53 88 -46 122c1 4 14 2 26 1c23 -1 91 -4 118 -4c39 0 89 3 109 4c11 0 24 3 25 -1c9 -33 -64 -4 -8 -135l189 -349v48c0 78 4 120 7 195c3 56 32 101 10 125c-5 7 -10 9 -20 9
c-7 0 -17 -4 -21 -15c-3 -7 -3 -18 3 -26c7 -10 15 -12 25 -12c5 0 4 -15 -3 -26c-10 -13 -29 -28 -51 -28c-27 -1 -58 20 -77 46c-23 35 -23 89 -6 126c24 51 69 75 118 82c33 4 90 -6 123 -47c39 -49 31 -111 22 -171l-14 -477c-3 -106 54 -72 48 -103z" />
    <glyph glyph-name="O" unicode="O" horiz-adv-x="912" 
d="M421 799c98 11 267 -18 379 -150c100 -120 119 -266 80 -393c-42 -141 -159 -236 -289 -275c-99 -29 -269 -16 -372 75c-154 135 -162 307 -152 416c9 101 71 220 203 284c48 23 105 36 151 43zM534 430c-7 7 -15 9 -26 9c-15 -1 -28 -10 -35 -24c-8 -15 -6 -33 1 -46
c15 -26 40 -36 64 -37c41 -3 82 14 112 54c35 47 32 122 15 166c-30 79 -83 115 -152 130c-67 14 -143 4 -201 -55c-84 -84 -71 -232 -55 -306c21 -94 74 -188 173 -224c57 -21 130 -15 187 28c75 58 105 171 96 236c0 0 -13 -37 -16 -44c-30 -70 -89 -106 -148 -119
c-43 -9 -97 1 -137 42c-44 45 -57 126 -47 168c11 51 46 101 102 122c34 13 72 10 95 -6c26 -19 33 -42 32 -65c-1 -19 -6 -31 -9 -36c-10 -16 -21 -21 -33 -19c-4 5 -6 13 -18 26z" />
    <glyph glyph-name="P" unicode="P" horiz-adv-x="662" 
d="M348 767c95 10 182 29 252 -59c55 -68 54 -175 28 -245c-27 -76 -75 -125 -150 -140c-41 -8 -113 4 -152 47c-32 35 -38 80 -26 120c11 36 39 67 79 76c13 3 23 3 32 1c12 -3 21 -5 26 -18c-20 -4 -32 -7 -38 -21c-3 -8 -2 -17 3 -23c4 -5 12 -11 30 -10c15 0 32 9 42 26
c14 20 14 77 2 106c-15 40 -43 63 -82 73c-27 7 -75 8 -101 -16c-30 -26 -30 -98 -30 -127c0 0 -1 -66 -1 -163c0 -101 3 -268 3 -268c2 -122 56 -91 47 -124c-1 -4 -13 -1 -25 -1c-19 1 -63 4 -102 4c-27 0 -78 -4 -100 -4c-12 0 -25 -3 -26 1c-7 34 44 1 46 124
c0 0 5 154 5 252c0 100 -5 258 -5 258c-2 123 -53 90 -46 124c1 4 14 2 26 1c22 -1 61 -4 100 -4c64 0 102 3 163 10z" />
    <glyph glyph-name="Q" unicode="Q" horiz-adv-x="886" 
d="M740 213c-59 -9 -78 46 -59 107c31 120 16 250 -85 331c-55 44 -125 56 -191 33c-73 -24 -123 -84 -144 -158c-25 -97 -4 -288 72 -372c91 -97 138 -86 172 -70c8 -5 22 -16 24 -33c1 -12 0 -24 -10 -38c-32 -46 -120 -45 -146 -43c-97 8 -246 110 -291 272
c-36 129 -22 296 65 408c101 130 295 160 388 146c121 -15 251 -84 311 -222c32 -73 38 -216 -21 -295c-13 -18 -36 -58 -85 -66zM740 94c-5 8 1 27 6 34c7 12 18 24 33 31s44 8 69 -4c33 -18 46 -43 50 -75c5 -41 -6 -90 -43 -125c-33 -31 -88 -44 -129 -37
c-75 15 -113 68 -153 145l-11 25c-22 47 -42 99 -92 108c-11 2 -24 0 -34 -11c-15 -18 -3 -31 -31 -35c-8 -1 -21 3 -35 19c-23 28 -27 78 -20 111c10 42 31 72 77 92c34 15 85 15 124 -8c68 -41 79 -104 96 -170l5 -19c6 -25 34 -119 77 -134c13 -3 24 -3 33 5
c7 7 12 15 10 25c-7 16 -17 23 -32 23z" />
    <glyph glyph-name="R" unicode="R" horiz-adv-x="659" 
d="M476 205c12 -13 75 -81 89 -88c30 -15 40 9 20 42c34 -3 61 -10 78 -44c12 -24 11 -54 -5 -82c-23 -41 -77 -65 -116 -65c-54 0 -115 18 -168 83c-55 67 -117 189 -99 249c4 14 16 26 33 32c23 6 52 -6 85 -33c18 -16 83 -94 83 -94zM345 767c95 10 182 29 252 -59
c55 -68 54 -175 28 -245c-27 -76 -75 -125 -150 -140c-41 -8 -113 4 -152 47c-32 35 -38 80 -27 120c12 36 40 67 80 76c12 3 23 3 32 1c11 -3 21 -5 26 -18c-20 -4 -32 -7 -38 -21c-3 -8 -2 -17 3 -23c4 -5 12 -11 30 -10c15 0 32 9 42 26c14 20 14 77 2 106
c-15 40 -43 63 -83 73c-26 7 -74 8 -100 -16c-30 -26 -30 -98 -30 -127c0 0 -1 -66 -1 -163c0 -101 3 -268 3 -268c1 -122 56 -91 47 -124c-1 -4 -14 -1 -25 -1c-20 1 -63 4 -102 4c-27 0 -78 -4 -100 -4c-12 0 -25 -3 -26 1c-7 34 44 1 46 124c0 0 4 154 4 252
c0 100 -4 258 -4 258c-2 123 -53 90 -46 124c1 4 14 2 26 1c22 -1 61 -4 100 -4c64 0 102 3 163 10z" />
    <glyph glyph-name="S" unicode="S" horiz-adv-x="652" 
d="M357 640c16 -7 31 -19 50 -5c8 5 17 19 14 33c-3 13 -14 27 -34 33c-21 8 -57 3 -83 -22c-27 -26 -34 -54 -27 -85c13 -55 91 -96 164 -125c92 -35 170 -65 193 -179c15 -72 1 -164 -71 -238c-81 -83 -229 -93 -305 -79c-64 13 -143 46 -178 132c-22 52 -21 123 13 175
c32 47 83 68 126 68c41 0 112 -16 146 -68c14 -22 22 -71 11 -98c-5 -12 -13 -23 -24 -31c-8 -6 -25 -14 -32 -15c1 18 -3 34 -22 41c-13 4 -29 2 -41 -9c-11 -10 -17 -24 -13 -41c5 -22 26 -38 49 -45c34 -11 82 0 117 35c48 44 58 103 45 155c-18 67 -88 106 -169 133
c-86 28 -154 60 -172 158c-11 56 3 125 68 180c72 61 188 71 270 43c63 -22 103 -56 115 -124c5 -29 -2 -86 -40 -118c-30 -24 -75 -32 -110 -18c-32 12 -57 37 -63 73c-1 11 -1 19 3 41z" />
    <glyph glyph-name="T" unicode="T" horiz-adv-x="764" 
d="M412 762c225 -1 356 14 356 14c-27 -23 -35 -103 -29 -142c9 -68 20 -136 -28 -176c-25 -22 -62 -29 -88 -22c-36 10 -60 30 -74 65c-20 51 -5 98 38 141c3 -17 11 -27 27 -30c11 -2 21 1 30 9c5 6 10 18 7 30c-4 13 -13 20 -26 26c-21 7 -53 -2 -80 -22
c-65 -48 -66 -141 -65 -189c0 -100 3 -340 3 -340c0 -122 56 -91 47 -124c-1 -4 -13 -1 -25 -1c-19 1 -63 4 -102 4c-27 0 -78 -4 -100 -4c-12 0 -25 -3 -26 1c-7 34 46 1 46 124c0 0 3 243 3 340c1 48 0 141 -65 189c-26 20 -59 29 -79 22c-14 -6 -22 -13 -26 -26
c-3 -12 2 -24 7 -30c8 -8 19 -11 30 -9c16 3 24 13 27 30c42 -43 58 -90 38 -141c-14 -35 -38 -55 -74 -65c-26 -7 -63 0 -88 22c-48 40 -37 108 -28 176c5 39 -2 119 -29 142c0 0 150 -13 373 -14z" />
    <glyph glyph-name="U" unicode="U" horiz-adv-x="691" 
d="M640 126c0 -123 56 -91 47 -124c-1 -2 -14 -3 -25 -1c-43 5 -80 8 -145 -8c0 0 -3 -1 -6 1l-1 4s1 5 -1 11c-6 10 -15 6 -32 -1s-13 -6 -31 -14s-39 -17 -63 -22c-42 -7 -95 -5 -133 10c-153 63 -142 213 -143 314c0 24 1 61 1 82c0 100 -3 258 -3 258
c-2 123 -53 90 -46 124c1 4 14 2 26 1c22 -1 73 -4 100 -4c39 0 83 3 102 4c12 0 24 3 25 -1c9 -33 -45 -1 -47 -124c0 0 -3 -155 -3 -252v-77c1 -83 3 -167 71 -206c32 -16 77 -18 113 1c71 41 71 141 71 189v254c0 77 2 92 -14 103c-7 4 -16 5 -26 1
c-8 -4 -14 -11 -15 -23c0 -9 2 -15 7 -21c6 -7 13 -8 22 -8c11 0 11 -13 8 -24c-4 -15 -21 -30 -37 -35c-23 -6 -54 -1 -83 26c-37 33 -47 92 -39 132c8 44 38 82 87 98c39 13 102 9 149 -26c64 -48 73 -161 72 -264z" />
    <glyph glyph-name="V" unicode="V" horiz-adv-x="602" 
d="M450 127c-30 -122 29 -92 20 -125c-1 -4 -13 -1 -25 -1c-19 1 -63 4 -102 4c-27 0 -78 -4 -100 -4c-12 0 -25 -3 -26 1c-7 34 50 3 20 125l-143 510c-33 120 -74 94 -66 123c1 4 14 2 26 1c22 -1 73 -4 100 -4c39 0 83 3 102 4c12 0 24 3 25 -1c9 -29 -51 -9 -18 -125
l107 -368l85 259c9 25 37 85 22 104c-5 7 -12 15 -26 13c-10 -3 -18 -9 -23 -19c-10 -20 4 -40 24 -50c-5 -15 -8 -19 -21 -30c-6 -4 -16 -8 -30 -7c-25 1 -49 20 -65 51c-16 28 -16 90 1 122c24 45 73 66 117 66c38 0 89 -8 123 -56c45 -64 19 -133 -4 -205
c0 0 -114 -350 -123 -388z" />
    <glyph glyph-name="W" unicode="W" horiz-adv-x="900" 
d="M543 129c-7 44 -13 68 -31 131l-13 46c-4 14 -10 13 -14 -1c0 0 -26 -73 -37 -119l-13 -59c-28 -136 27 -92 17 -125c-1 -4 -13 -1 -24 -1c-20 1 -63 4 -103 4c-26 0 -77 -4 -100 -4c-11 0 -25 -3 -26 1c-7 34 59 2 31 125c-1 3 -135 510 -135 510
c-32 124 -74 94 -66 123c1 4 14 2 26 1c22 -1 73 -4 100 -4c39 0 83 3 102 4c12 0 24 3 25 -1c9 -29 -61 -5 -31 -144c36 -170 56 -275 109 -362c46 110 83 261 49 384c-33 118 -78 93 -70 122c1 4 14 2 26 1c22 -1 73 -4 100 -4c39 0 83 3 102 4c12 0 24 3 25 -1
c9 -29 -63 -13 -35 -126c0 0 66 -271 108 -380c39 141 85 265 85 265c9 33 24 60 29 82c3 20 -12 30 -27 31c-14 1 -26 -8 -30 -24c-4 -15 8 -35 11 -41c4 -12 -10 -19 -34 -18c-9 0 -20 2 -34 9c-29 14 -43 40 -48 67c-5 29 1 75 30 107c36 40 78 46 118 43
c37 -3 88 -17 117 -62c32 -53 5 -124 -12 -177c0 0 -71 -190 -108 -315c-10 -36 -16 -62 -23 -96c-26 -122 33 -90 23 -123c-1 -4 -13 -1 -24 -1c-20 1 -63 4 -103 4c-27 0 -77 -4 -100 -4c-11 0 -25 -3 -26 1c-7 34 59 2 34 127z" />
    <glyph glyph-name="X" unicode="X" horiz-adv-x="787" 
d="M321 402c-33 -4 -62 -5 -86 29c-16 20 -15 50 3 77c3 -6 4 -15 18 -28c5 -4 15 -9 31 -8c17 1 29 9 38 26c11 17 11 42 -3 66c-15 29 -37 46 -66 48c-23 2 -50 -4 -73 -33c-23 -33 -19 -92 -6 -130c12 -33 27 -54 62 -85c9 -9 -7 -23 -23 -29c-8 -3 -22 -5 -36 -2
c-47 7 -84 57 -103 110c-25 71 -24 202 35 273c44 51 113 66 163 57c69 -13 109 -46 135 -120c1 -1 13 -39 17 -55c5 10 19 33 29 50c72 110 1 79 8 112c1 4 13 2 25 1c22 -1 83 -4 109 -4c39 0 92 3 112 4c11 0 26 3 25 -1c-6 -33 -26 1 -98 -110l-123 -191
c44 24 94 40 134 14c19 -13 30 -35 29 -56c-2 -11 -4 -17 -9 -22c-5 -9 -14 -13 -20 -13c-30 31 -56 36 -86 24c-37 -16 -53 -50 -58 -86c-6 -37 1 -98 40 -130c23 -17 50 -26 76 -15c25 10 33 21 39 37c8 20 9 52 -13 71c-35 29 -59 4 -65 9c-6 4 -4 13 -1 20
c3 10 12 17 19 21c28 12 64 8 97 -15c61 -41 82 -127 78 -180c-5 -54 -35 -125 -100 -155c-47 -21 -117 -22 -170 16c-91 65 -93 219 -90 284c-19 -34 -83 -162 -83 -162c-59 -118 -5 -86 -14 -119c-1 -4 -13 -1 -25 -1c-19 1 -62 4 -101 4c-26 0 -76 -4 -99 -4
c-11 0 -25 -3 -26 1c-6 34 33 -1 99 105z" />
    <glyph glyph-name="Y" unicode="Y" horiz-adv-x="607" 
d="M265 127c0 52 -6 99 -29 159l-137 354c-50 135 -85 86 -77 120c1 4 14 2 26 1c22 -1 73 -4 100 -4c39 0 70 3 90 4c11 0 23 3 24 -1c9 -32 -43 4 -1 -125l18 -48l88 -203l70 125c25 46 53 81 44 110c-3 10 -13 19 -24 20c-12 0 -22 -3 -27 -11c-4 -6 -5 -21 -3 -25
c12 -23 17 -18 22 -24s5 -12 -10 -25c-5 -4 -20 -9 -27 -9c-23 -2 -50 11 -72 43c-21 33 -21 81 -1 119c27 47 73 68 122 68c41 0 100 -20 130 -73c39 -73 4 -139 -38 -221l-101 -188c-18 -37 -26 -107 -27 -167c1 -122 55 -91 46 -124c-1 -4 -13 -1 -25 -1
c-19 1 -63 4 -102 4c-27 0 -77 -4 -100 -4c-12 0 -25 -3 -26 1c-7 34 44 1 47 125z" />
    <glyph glyph-name="Z" unicode="Z" horiz-adv-x="639" 
d="M522 636l-137 -314c-38 -89 -49 -151 -28 -188c16 -22 42 -26 67 -24c44 1 84 14 111 58c17 31 18 64 7 84c-6 13 -12 18 -23 17c-10 0 -18 -13 -19 -23c-1 -14 -2 -44 -31 -61c-19 -9 -35 -5 -46 4c-29 23 -27 52 -17 72c7 -11 13 -29 30 -29c25 1 21 28 15 61
c-4 25 -3 42 5 61c11 30 30 47 55 53c29 7 59 0 78 -20c51 -46 33 -122 26 -165l-16 -92c-25 -127 32 -91 20 -128c-1 -4 -14 -1 -25 -1c-10 1 -143 6 -271 6c-118 0 -235 -6 -247 -6c-11 0 -24 -3 -25 1c-8 34 22 1 86 130l153 366c14 33 47 106 25 146
c-12 23 -33 35 -48 39c-24 3 -46 -3 -63 -19c-15 -14 -20 -28 -19 -37c1 -14 12 -25 21 -29c13 -6 30 -4 44 10c8 -4 10 -17 9 -25c-10 -61 -43 -87 -78 -97c-24 -10 -49 -4 -67 12c-38 33 -35 98 -29 140c19 142 -22 108 -11 136c1 3 15 2 26 1c13 -1 128 -16 280 -16
c103 0 196 2 206 2c11 0 24 3 25 -1c9 -33 -38 8 -89 -124z" />
    <glyph glyph-name="bracketleft" unicode="[" horiz-adv-x="344" 
d="M248 724v-854h115v-56h-250v962h250v-52h-115z" />
    <glyph glyph-name="backslash" unicode="\" horiz-adv-x="669" 
d="M615 -22h-113l-399 801h113z" />
    <glyph glyph-name="bracketright" unicode="]" horiz-adv-x="344" 
d="M29 776h250v-962h-250v56h115v854h-115v52z" />
    <glyph glyph-name="asciicircum" unicode="^" horiz-adv-x="346" 
d="M163 706h69l114 -173h-38l-110 114l-109 -114h-40z" />
    <glyph glyph-name="underscore" unicode="_" horiz-adv-x="574" 
d="M597 -207h-620v73h620v-73z" />
    <glyph glyph-name="grave" unicode="`" horiz-adv-x="267" 
d="M279 533h-41l-80 54c-23 15 -97 61 -93 93c2 12 11 26 28 30c35 9 81 -54 113 -90z" />
    <glyph glyph-name="braceleft" unicode="{" horiz-adv-x="541" 
d="M526 868v-54c-38 -4 -99 -20 -136 -57c-44 -44 -36 -75 -36 -134v-61c0 -59 4 -128 -66 -178c-45 -34 -122 -46 -170 -55c159 -25 235 -53 235 -234v-54c0 -79 -7 -112 63 -160c40 -28 73 -36 111 -38v-51c-60 0 -182 14 -242 76c-53 55 -48 105 -48 171v61
c0 52 11 117 -62 163c-37 22 -84 29 -123 36v61c141 23 183 54 185 201v56c0 69 -4 153 89 205c61 36 124 46 200 46z" />
    <glyph glyph-name="bar" unicode="|" horiz-adv-x="289" 
d="M214 -85h-83v962h83v-962z" />
    <glyph glyph-name="braceright" unicode="}" horiz-adv-x="541" 
d="M256 822c93 -52 90 -136 90 -205v-56c2 -147 43 -178 185 -201v-61c-39 -7 -87 -14 -123 -36c-73 -46 -62 -111 -62 -163v-61c0 -66 4 -116 -48 -171c-60 -62 -182 -76 -242 -76v51c38 2 71 10 110 38c71 48 63 81 63 160v54c0 181 77 209 236 234c-49 9 -125 21 -171 55
c-70 50 -66 119 -66 178v61c0 59 9 90 -36 134c-36 37 -97 53 -135 57v54c75 0 138 -10 199 -46z" />
    <glyph glyph-name="asciitilde" unicode="~" horiz-adv-x="364" 
d="M334 649h28c-9 -36 -27 -93 -71 -109c-54 -19 -81 18 -137 39c-19 7 -35 8 -51 -5c-8 -6 -13 -14 -24 -41h-30c10 42 26 94 76 107c62 19 81 -30 145 -43c17 -3 34 0 48 18c7 8 13 25 16 34z" />
    <glyph glyph-name="Adieresis" unicode="&#xc4;" horiz-adv-x="747" 
d="M361 379c-9 -21 -43 -98 -21 -118c7 -7 29 -8 52 -8c8 0 17 0 25 1c12 5 17 2 24 14c0 8 0 7 -2 16l-46 168zM289 529c4 12 37 105 16 130c-6 7 -16 11 -28 8c-5 -1 -14 -6 -17 -16c-6 -21 8 -30 22 -34c-3 -22 -3 -42 -33 -55c-12 -5 -30 -5 -49 8c-33 23 -46 64 -46 94
c0 40 14 87 67 123c51 35 131 45 187 23c81 -30 97 -100 118 -178l108 -420c8 -24 17 -54 22 -66c14 -33 28 -45 52 -42c15 2 27 13 27 34c0 10 1 21 -15 41c-3 4 0 8 6 7c15 -2 24 -4 41 -24c7 -8 12 -22 15 -41c5 -33 -5 -78 -39 -113c-30 -31 -98 -49 -143 -37
c-55 16 -66 43 -101 115c-23 45 -84 64 -120 68c-26 3 -74 3 -99 -28c-83 -113 32 -91 23 -124c-1 -4 -14 -1 -25 -1c-20 1 -63 4 -102 4c-27 0 -78 -4 -101 -4c-10 0 -24 -3 -25 1c-8 34 48 -3 96 129zM240 994c14 4 33 3 48 -9c14 -11 23 -29 22 -47
c-1 -17 -10 -34 -29 -45c-12 -7 -31 -10 -49 -1c-16 8 -28 24 -32 43c-2 25 12 50 40 59zM429 994c14 4 33 3 48 -9c14 -11 23 -29 22 -47c-1 -17 -10 -34 -29 -45c-12 -7 -31 -10 -49 -1c-16 8 -28 24 -32 43c-2 25 12 50 40 59z" />
    <glyph glyph-name="Aring" unicode="&#xc5;" horiz-adv-x="747" 
d="M351 379c-8 -21 -42 -98 -20 -118c7 -7 29 -8 51 -8c8 0 18 0 26 1c11 5 17 2 24 14c0 8 0 7 -2 16l-47 168zM280 529c4 12 37 105 15 130c-6 7 -15 11 -27 8c-6 -1 -14 -6 -17 -16c-6 -21 7 -30 22 -34c-3 -22 -3 -42 -33 -55c-13 -5 -30 -5 -49 8c-33 23 -46 64 -46 94
c0 40 14 87 67 123c50 35 131 45 187 23c80 -30 97 -100 118 -178l108 -420c7 -24 17 -54 22 -66c14 -33 28 -45 51 -42c16 2 27 13 27 34c0 10 1 21 -14 41c-3 4 0 8 6 7c14 -2 24 -4 40 -24c7 -8 13 -22 16 -41c5 -33 -5 -78 -40 -113c-29 -31 -98 -49 -142 -37
c-55 16 -66 43 -101 115c-23 45 -84 64 -120 68c-26 3 -75 3 -99 -28c-83 -113 32 -91 22 -124c-1 -4 -13 -1 -24 -1c-20 1 -63 4 -103 4c-27 0 -77 -4 -100 -4c-10 0 -25 -3 -26 1c-7 34 49 -3 96 129zM306 1089c28 7 65 2 94 -24c27 -25 37 -63 33 -93
c-5 -31 -24 -62 -61 -79c-31 -14 -67 -13 -95 4c-36 21 -50 51 -52 85c-1 27 14 68 46 91c10 7 20 13 35 16zM267 981c2 -21 15 -40 35 -50c18 -11 40 -7 54 0c25 13 36 34 37 50c2 22 -8 43 -24 56c-18 15 -40 17 -56 12c-32 -10 -49 -40 -46 -68z" />
    <glyph glyph-name="Ccedilla" unicode="&#xc7;" horiz-adv-x="893" 
d="M510 -30l-46 -78c50 8 90 7 129 -23c29 -23 35 -53 35 -79c0 -37 -18 -68 -58 -93c-64 -40 -185 -20 -261 12l25 55c41 -15 111 -36 147 -16c18 10 26 17 26 36c0 18 -7 30 -17 39c-20 17 -55 12 -90 3l-30 24l72 119c-90 6 -192 41 -277 137c-90 103 -113 287 -85 388
c36 135 118 233 263 282c130 44 284 28 397 -59c99 -78 143 -189 137 -279c-6 -75 -25 -138 -94 -181c-68 -40 -156 -42 -220 8c-39 31 -64 99 -50 147c10 32 35 57 68 66c22 5 52 5 73 -14c6 -6 13 -17 17 -31c0 -7 2 -26 -3 -33c-12 0 -31 -1 -31 -25c0 -9 3 -20 13 -25
c6 -4 13 -3 26 -3c20 5 31 30 36 56c12 63 -23 170 -90 235c-52 49 -139 70 -202 53c-77 -20 -124 -69 -150 -151c-32 -100 -13 -294 70 -393c48 -60 111 -83 164 -78c20 0 100 19 76 93c-5 16 4 18 17 14c92 -29 113 -23 220 15l7 -1c5 -6 -2 -13 -2 -13l-13 -19
c-51 -83 -31 -98 -120 -146c-49 -25 -118 -36 -165 -42h-14z" />
    <glyph glyph-name="Eacute" unicode="&#xc9;" horiz-adv-x="619" 
d="M184 5c-39 0 -78 -4 -100 -4c-12 0 -25 -3 -26 1c-7 34 44 1 46 124c0 0 4 154 4 252c0 100 -4 258 -4 258c-2 123 -53 90 -46 124c1 4 14 2 26 1c22 -1 61 -5 100 -4c72 1 136 7 181 13c63 7 128 19 159 -32c19 -32 18 -75 -4 -110c-34 -54 -99 -73 -146 -67
c-8 1 -20 3 -28 6c-10 4 -24 10 -24 19c30 18 42 33 42 58c0 17 -8 36 -27 48c-2 1 -11 6 -31 6c-6 0 -27 0 -33 -7c-12 -71 -10 -122 -10 -125v-61c55 -61 111 -64 162 -50c38 10 56 19 87 64c14 -52 18 -121 -29 -173c-31 -33 -71 -45 -109 -39c-17 2 -38 10 -57 22
c-10 7 -29 22 -42 39c-10 11 -14 14 -14 3v-98c0 -2 2 -156 59 -188c18 -11 47 -10 65 1c19 11 30 30 30 49c0 14 -6 29 -20 39c-15 9 -26 5 -50 -6c13 46 39 68 78 81c34 12 84 13 121 -10c41 -26 53 -59 57 -100c3 -35 -5 -81 -41 -115c-57 -54 -164 -44 -217 -37
c0 0 -97 17 -159 18zM278 967c32 36 77 99 112 90c17 -4 26 -18 28 -30c5 -32 -70 -78 -93 -93l-79 -54h-41z" />
    <glyph glyph-name="Ntilde" unicode="&#xd1;" horiz-adv-x="695" 
d="M685 2c-1 -4 -8 -3 -26 -1c-10 1 -57 4 -104 4c-49 0 -98 -3 -109 -4c-11 0 -23 -3 -25 1c-9 33 68 0 0 131l-86 170l-106 190s-3 -107 -3 -175c0 -75 3 -192 3 -192c0 -122 56 -91 47 -124c-1 -4 -14 -1 -25 -1c-10 1 -45 4 -82 4c-35 0 -70 -4 -81 -4
c-12 0 -25 -3 -26 1c-7 34 46 1 46 124c0 0 5 160 5 262c0 98 -5 250 -5 250c0 123 -53 88 -46 122c1 4 14 2 26 1c23 -1 91 -4 118 -4c39 0 89 3 109 4c11 0 24 3 25 -1c9 -33 -64 -4 -8 -135l189 -349v48c0 78 4 120 7 195c3 56 32 101 10 125c-5 7 -10 9 -20 9
c-7 0 -17 -4 -21 -15c-3 -7 -3 -18 3 -26c7 -10 15 -12 25 -12c5 0 4 -15 -3 -26c-10 -13 -29 -28 -51 -28c-27 -1 -58 20 -77 46c-23 35 -23 89 -6 126c24 51 69 75 118 82c33 4 90 -6 123 -47c39 -49 31 -111 22 -171l-14 -477c-3 -106 54 -72 48 -103zM486 996h27
c-8 -36 -26 -93 -70 -109c-55 -19 -81 18 -137 39c-19 7 -35 8 -51 -5c-8 -6 -13 -14 -25 -41h-30c11 43 27 94 77 108c62 18 80 -31 144 -44c18 -3 35 0 49 18c7 8 12 26 16 34z" />
    <glyph glyph-name="Odieresis" unicode="&#xd6;" horiz-adv-x="912" 
d="M403 799c97 11 266 -18 378 -150c100 -120 120 -266 81 -393c-43 -141 -160 -236 -290 -275c-99 -29 -268 -16 -372 75c-154 135 -162 307 -151 416c9 101 71 220 202 284c49 23 105 36 152 43zM515 430c-7 7 -15 9 -25 9c-16 -1 -28 -10 -35 -24c-9 -15 -7 -33 1 -46
c14 -26 40 -36 64 -37c40 -3 81 14 111 54c35 47 32 122 16 166c-30 79 -84 115 -152 130c-67 14 -144 4 -202 -55c-83 -84 -71 -232 -54 -306c20 -94 73 -188 172 -224c57 -21 130 -15 187 28c76 58 106 171 96 236c0 0 -12 -37 -15 -44c-30 -70 -89 -106 -149 -119
c-42 -9 -96 1 -136 42c-45 45 -57 126 -48 168c11 51 47 101 102 122c34 13 73 10 95 -6c26 -19 33 -42 32 -65c-1 -19 -6 -31 -9 -36c-9 -16 -21 -21 -33 -19c-4 5 -5 13 -18 26zM320 986c15 4 33 3 49 -10c13 -10 23 -29 21 -46c-1 -17 -10 -34 -28 -46
c-13 -6 -31 -9 -49 -1c-17 9 -29 25 -32 44c-2 24 11 49 39 59zM509 986c15 4 33 3 49 -10c13 -10 23 -29 22 -46s-11 -34 -29 -46c-13 -6 -31 -9 -49 -1c-16 9 -29 25 -32 44c-2 24 11 49 39 59z" />
    <glyph glyph-name="Udieresis" unicode="&#xdc;" horiz-adv-x="691" 
d="M635 126c0 -123 56 -91 47 -124c-1 -2 -15 -3 -25 -1c-43 5 -81 8 -146 -8c0 0 -2 -1 -5 1l-1 4s1 5 -1 11c-6 10 -15 6 -32 -1s-13 -6 -31 -14s-39 -17 -63 -22c-42 -7 -95 -5 -133 10c-153 63 -142 213 -143 314c0 24 1 61 1 82c0 100 -3 258 -3 258
c-2 123 -54 90 -46 124c1 4 14 2 26 1c22 -1 73 -4 100 -4c39 0 82 3 102 4c11 0 24 3 25 -1c9 -33 -46 -1 -47 -124c0 0 -3 -155 -3 -252v-77c1 -83 3 -167 70 -206c33 -16 78 -18 114 1c70 41 70 141 70 189v254c0 77 2 92 -13 103c-7 4 -17 5 -26 1
c-8 -4 -14 -11 -15 -23c0 -9 2 -15 7 -21c6 -7 13 -8 22 -8c11 0 11 -13 8 -24c-4 -15 -21 -30 -37 -35c-23 -6 -54 -1 -83 26c-37 33 -48 92 -39 132c8 44 38 82 86 98c40 13 103 9 150 -26c64 -48 73 -161 72 -264zM232 988c15 4 33 3 49 -10c13 -10 23 -29 22 -46
s-11 -34 -29 -46c-13 -6 -31 -9 -49 -1c-16 9 -29 25 -32 44c-2 25 12 49 39 59zM421 988c15 4 34 3 49 -10c13 -10 23 -29 22 -46s-11 -34 -29 -46c-13 -6 -31 -9 -49 -1c-16 9 -29 25 -32 44c-2 25 12 49 39 59z" />
    <glyph glyph-name="cent" unicode="&#xa2;" horiz-adv-x="615" 
d="M534 650c20 -17 56 -76 52 -138c-4 -51 -17 -92 -69 -118c-52 -27 -145 -32 -178 6c-26 30 -34 67 -24 100c7 23 24 40 47 46c15 5 35 3 49 -10c4 -3 12 -10 15 -19c3 -10 4 -18 -1 -25c-11 1 -24 -1 -24 -17c0 -6 3 -14 8 -17c10 -7 24 -6 33 -2c21 8 35 20 41 36
c7 15 16 59 -31 103c-36 34 -96 49 -139 37c-55 -13 -86 -48 -105 -104c-22 -70 -9 -205 48 -273c34 -42 78 -58 115 -54c17 0 40 11 49 32c0 5 5 12 5 23v24c72 -25 84 -22 163 5l3 -9l-9 -14c-42 -62 -29 -62 -87 -94c-34 -18 -77 -34 -114 -36v-5c0 -100 3 -92 49 -119
c0 0 3 -5 1 -7c-2 -3 -7 -1 -7 -1s-43 4 -71 4c-31 0 -80 -4 -80 -4s-5 -2 -8 1c-2 2 2 7 2 7c45 27 48 23 48 119v5c-57 5 -125 33 -180 94c-62 72 -78 199 -59 270c26 93 84 163 183 197c19 6 36 9 56 12c0 -1 0 4 0 4c0 87 -3 67 -48 94c0 0 -4 5 -2 7c3 3 8 1 8 1
s49 -4 80 -4c28 0 71 4 71 4s5 2 7 -1c2 -2 -1 -7 -1 -7c-46 -27 -49 -5 -49 -90v-5c55 0 109 -21 153 -58z" />
    <glyph glyph-name="sterling" unicode="&#xa3;" horiz-adv-x="580" 
d="M126 111c-35 -22 -39 -60 -12 -91c15 -18 54 -21 79 -6c26 16 38 46 43 74c-24 27 -79 43 -110 23zM327 409h129v-78h-117c0 -81 -5 -127 -24 -198c31 -9 63 -22 108 -22c86 -4 97 35 110 75h22c0 -16 0 -144 -73 -193c-34 -24 -94 -21 -125 -6c-26 12 -59 44 -81 66
c-11 -16 -17 -53 -65 -68c-37 -13 -76 -17 -108 4c-48 31 -41 99 -34 115c22 39 49 55 81 62c45 8 69 -2 91 -8c-8 59 -22 123 -45 173h-109v78h94c-13 31 -28 81 -20 133c13 125 80 207 228 231c41 5 104 1 148 -52c40 -48 40 -127 22 -179c-22 -59 -55 -97 -113 -107
c-29 -6 -66 -2 -93 32c-19 23 -27 58 -18 83c4 11 11 25 20 33c21 -23 34 -34 58 -31c18 2 35 13 39 32c7 16 4 33 -9 48c-17 22 -39 26 -62 23c-71 -9 -86 -75 -85 -118c0 -15 14 -69 31 -128z" />
    <glyph glyph-name="acute" unicode="&#xb4;" horiz-adv-x="263" 
d="M117 620c32 36 77 99 112 90c17 -4 26 -18 28 -30c4 -32 -70 -78 -93 -93l-79 -54h-42z" />
    <glyph glyph-name="dieresis" unicode="&#xa8;" horiz-adv-x="347" 
d="M95 1003c15 4 33 3 49 -9c13 -11 22 -29 21 -47c-1 -16 -10 -34 -29 -45c-12 -6 -31 -9 -48 -1s-29 25 -32 43c-2 25 11 50 39 59zM284 1003c15 4 33 3 49 -9c13 -11 22 -29 21 -47c-1 -16 -10 -34 -29 -45c-12 -6 -31 -9 -48 -1s-29 25 -32 43c-2 25 11 50 39 59z" />
    <glyph glyph-name="notequal" unicode="&#x2260;" horiz-adv-x="829" 
d="M384 637c18 7 33 24 30 42c-1 8 -8 19 -24 28c-18 7 -40 5 -55 -9c-26 -18 -33 -50 -29 -79c4 -34 29 -68 69 -89v-31c-76 -24 -108 -53 -131 -133c-18 -59 -20 -169 36 -236c38 -45 100 -55 144 -49c50 6 118 34 148 97c20 37 26 97 4 134c-17 31 -47 46 -78 49
c-21 0 -43 -5 -60 -28c-11 -16 -13 -32 -9 -45c3 -14 11 -26 28 -29c10 -1 20 3 28 11s10 23 0 44c0 0 0 4 1 5s6 0 6 0c11 -3 20 -7 32 -26c4 -7 8 -20 7 -37c0 -26 -10 -52 -42 -73c-25 -17 -55 -19 -82 -5c-39 18 -56 53 -62 92c-9 65 8 132 59 177c53 48 121 38 172 27
l23 -5c32 -6 81 -11 112 21c18 20 27 45 22 69c-2 12 -7 24 -23 31c-9 4 -25 3 -33 -5c-18 -18 -9 -40 9 -51c0 -7 -3 -15 -13 -21c-2 -1 -10 -5 -23 -3c-20 4 -38 19 -47 41c-8 18 -8 44 8 68c21 30 54 41 86 40c35 -2 76 -21 102 -64c30 -52 27 -148 4 -198
c-32 -63 -85 -81 -141 -85c47 -40 50 -143 1 -214c-76 -111 -263 -135 -344 -129c-74 5 -190 33 -242 134c-48 98 -23 245 36 337c37 58 85 87 143 103c-54 21 -82 51 -85 110c-2 36 12 74 54 106c58 44 162 51 218 31c38 -12 74 -36 86 -78c7 -23 3 -59 -19 -85
c-18 -23 -48 -35 -69 -33c-11 1 -25 6 -34 12c-18 13 -19 19 -23 31z" />
    <glyph glyph-name="AE" unicode="&#xc6;" horiz-adv-x="437" 
d="M73 726c4 30 24 58 54 69c26 11 55 5 74 -12c25 -21 31 -48 26 -72c-8 -45 -34 -57 -74 -69c14 -36 45 -59 70 -79l-19 -24c-78 51 -139 124 -131 187zM250 726c4 30 24 58 54 69c26 11 54 5 74 -12c25 -21 31 -48 26 -72c-8 -45 -34 -57 -74 -69c14 -36 45 -59 70 -79
l-20 -24c-77 51 -138 124 -130 187z" />
    <glyph glyph-name="ae" unicode="&#xe6;" horiz-adv-x="200" 
d="M45 726c5 30 24 58 54 69c26 11 55 5 75 -12c24 -21 31 -48 25 -72c-8 -45 -34 -57 -74 -69c14 -36 45 -59 70 -79l-19 -24c-78 51 -139 124 -131 187z" />
    <glyph glyph-name="Agrave" unicode="&#xc0;" horiz-adv-x="747" 
d="M357 379c-8 -21 -42 -98 -20 -118c7 -7 29 -8 51 -8c9 0 18 0 26 1c12 5 17 2 24 14c0 8 0 7 -2 16l-47 168zM286 529c4 12 37 105 16 130c-7 7 -16 11 -28 8c-5 -1 -14 -6 -17 -16c-6 -21 7 -30 22 -34c-3 -22 -3 -42 -33 -55c-13 -5 -30 -5 -49 8c-33 23 -46 64 -46 94
c0 40 14 87 67 123c51 35 131 45 187 23c81 -30 97 -100 118 -178l108 -420c7 -24 17 -54 22 -66c14 -33 28 -45 52 -42c15 2 26 13 26 34c0 10 1 21 -14 41c-3 4 0 8 6 7c15 -2 24 -4 40 -24c8 -8 13 -22 16 -41c5 -33 -5 -78 -39 -113c-30 -31 -98 -49 -143 -37
c-55 16 -66 43 -101 115c-23 45 -84 64 -120 68c-26 3 -74 3 -99 -28c-83 -113 32 -91 23 -124c-1 -4 -14 -1 -25 -1c-20 1 -63 4 -102 4c-27 0 -78 -4 -101 -4c-10 0 -24 -3 -26 1c-7 34 49 -3 97 129zM405 880h-41l-80 54c-23 15 -97 61 -93 93c2 12 11 26 28 30
c35 9 81 -54 113 -90z" />
    <glyph glyph-name="Atilde" unicode="&#xc3;" horiz-adv-x="747" 
d="M354 379c-8 -21 -42 -98 -20 -118c7 -7 29 -8 51 -8c9 0 18 0 26 1c12 5 17 2 24 14c0 8 0 7 -2 16l-47 168zM283 529c4 12 37 105 16 130c-7 7 -16 11 -28 8c-6 -1 -14 -6 -17 -16c-6 -21 7 -30 22 -34c-3 -22 -3 -42 -33 -55c-13 -5 -30 -5 -49 8c-33 23 -46 64 -46 94
c0 40 14 87 67 123c50 35 131 45 187 23c80 -30 97 -100 118 -178l108 -420c7 -24 17 -54 22 -66c14 -33 28 -45 51 -42c16 2 27 13 27 34c0 10 1 21 -14 41c-3 4 0 8 6 7c15 -2 24 -4 40 -24c8 -8 13 -22 16 -41c5 -33 -5 -78 -39 -113c-30 -31 -99 -49 -143 -37
c-55 16 -66 43 -101 115c-23 45 -84 64 -120 68c-26 3 -74 3 -99 -28c-83 -113 32 -91 22 -124c-1 -4 -13 -1 -24 -1c-20 1 -63 4 -103 4c-26 0 -77 -4 -100 -4c-10 0 -25 -3 -26 1c-7 34 49 -3 96 129zM455 996h27c-8 -36 -26 -93 -70 -109c-55 -19 -81 18 -137 39
c-19 7 -35 8 -51 -5c-8 -6 -13 -14 -25 -41h-30c11 43 27 94 77 108c62 18 80 -31 144 -44c18 -3 35 0 49 18c7 8 12 26 16 34z" />
    <glyph glyph-name="Otilde" unicode="&#xd5;" horiz-adv-x="912" 
d="M420 799c98 11 267 -18 379 -150c100 -120 119 -266 80 -393c-42 -141 -159 -236 -289 -275c-99 -29 -269 -16 -372 75c-154 135 -162 307 -152 416c9 101 71 220 203 284c48 23 105 36 151 43zM533 430c-7 7 -15 9 -26 9c-15 -1 -28 -10 -35 -24c-8 -15 -6 -33 1 -46
c15 -26 40 -36 64 -37c40 -3 82 14 112 54c35 47 32 122 15 166c-30 79 -83 115 -152 130c-67 14 -143 4 -201 -55c-84 -84 -71 -232 -55 -306c21 -94 74 -188 173 -224c57 -21 130 -15 187 28c75 58 105 171 96 236c0 0 -13 -37 -16 -44c-30 -70 -89 -106 -148 -119
c-43 -9 -97 1 -137 42c-44 45 -57 126 -47 168c11 51 46 101 102 122c34 13 72 10 95 -6c26 -19 33 -42 32 -65c-1 -19 -6 -31 -9 -36c-10 -16 -21 -21 -33 -19c-5 5 -6 13 -18 26zM568 999h28c-8 -36 -27 -93 -70 -109c-55 -19 -82 18 -138 39c-18 7 -35 8 -50 -4
c-8 -7 -14 -15 -25 -42h-30c10 43 27 94 77 108c61 18 80 -31 144 -44c18 -3 34 0 49 18c7 8 12 26 15 34z" />
    <glyph glyph-name="quotedblleft" unicode="&#x201c;" horiz-adv-x="437" 
d="M210 802l19 -24c-24 -20 -55 -43 -70 -79c40 -12 66 -24 74 -69c6 -24 -1 -51 -25 -72c-20 -17 -49 -23 -75 -13c-30 12 -49 40 -53 70c-9 63 52 136 130 187zM386 802l20 -24c-25 -20 -56 -43 -70 -79c40 -12 66 -24 74 -69c5 -24 -1 -51 -26 -72
c-19 -17 -48 -23 -74 -13c-30 12 -50 40 -54 70c-8 63 53 136 130 187z" />
    <glyph glyph-name="quotedblright" unicode="&#x201d;" horiz-adv-x="437" 
d="M276 539l-20 24c25 20 56 43 70 79c-40 12 -66 24 -74 69c-5 24 1 51 26 72c20 17 48 23 74 12c30 -11 50 -39 54 -69c8 -63 -53 -136 -130 -187zM99 539l-19 24c24 20 55 43 70 79c-40 12 -66 24 -75 69c-5 24 1 51 26 72c20 17 49 23 75 12c30 -11 49 -39 53 -69
c9 -63 -52 -136 -130 -187z" />
    <glyph glyph-name="quoteleft" unicode="&#x2018;" horiz-adv-x="215" 
d="M185 802l20 -24c-25 -20 -56 -43 -71 -79c41 -12 66 -24 75 -69c5 -24 -1 -51 -26 -72c-20 -17 -49 -23 -75 -13c-29 12 -49 40 -53 70c-9 63 52 136 130 187z" />
    <glyph glyph-name="quoteright" unicode="&#x2019;" horiz-adv-x="215" 
d="M84 539l-20 24c25 20 56 43 70 79c-40 12 -66 24 -74 69c-5 24 1 51 26 72c19 17 48 23 74 12c30 -11 50 -39 54 -69c8 -63 -53 -136 -130 -187z" />
    <glyph glyph-name="Ydieresis" unicode="&#x178;" horiz-adv-x="588" 
d="M281 127c0 52 -6 99 -30 159l-136 354c-51 135 -85 86 -78 120c1 4 15 2 26 1c23 -1 73 -4 100 -4c39 0 70 3 90 4c11 0 24 3 25 -1c8 -32 -43 4 -1 -125c5 -16 9 -27 17 -48l88 -203l70 125c25 46 53 81 45 110c-3 10 -14 19 -25 20c-11 0 -22 -3 -27 -11
c-4 -6 -5 -21 -3 -25c13 -23 18 -18 23 -24c4 -6 4 -12 -10 -25c-6 -4 -20 -9 -27 -9c-23 -2 -51 11 -73 43c-20 33 -20 81 -1 119c27 47 74 68 122 68c42 0 100 -20 130 -73c40 -73 5 -139 -38 -221l-100 -188c-19 -37 -27 -107 -28 -167c1 -122 56 -91 47 -124
c-1 -4 -14 -1 -25 -1c-20 1 -63 4 -102 4c-27 0 -78 -4 -101 -4c-11 0 -24 -3 -26 1c-7 34 45 1 48 125zM316 967c32 36 78 99 113 90c16 -4 26 -18 28 -30c4 -32 -71 -78 -93 -93l-80 -54h-41z" />
    <glyph glyph-name="fraction" unicode="&#x2044;" horiz-adv-x="588" 
d="M287 127c0 52 -6 99 -30 159l-136 354c-51 135 -85 86 -78 120c1 4 15 2 26 1c23 -1 74 -4 100 -4c40 0 71 3 90 4c12 0 24 3 25 -1c8 -32 -43 4 -1 -125c5 -16 9 -27 18 -48l87 -203l71 125c24 46 52 81 44 110c-3 10 -13 19 -25 20c-11 0 -21 -3 -27 -11
c-4 -6 -5 -21 -3 -25c13 -23 18 -18 23 -24c4 -6 4 -12 -10 -25c-5 -4 -20 -9 -27 -9c-23 -2 -51 11 -72 43c-21 33 -21 81 -1 119c26 47 73 68 121 68c42 0 101 -20 131 -73c39 -73 4 -139 -39 -221l-100 -188c-18 -37 -27 -107 -28 -167c1 -122 56 -91 47 -124
c-1 -4 -14 -1 -25 -1c-20 1 -63 4 -102 4c-27 0 -78 -4 -101 -4c-11 0 -24 -3 -25 1c-8 34 44 1 47 125zM228 985c15 4 33 3 49 -10c13 -10 23 -29 22 -46s-11 -34 -29 -46c-13 -6 -31 -9 -49 -1c-16 8 -29 25 -32 44c-2 24 11 49 39 59zM417 985c15 4 33 3 49 -10
c13 -10 23 -29 22 -46s-11 -34 -29 -46c-13 -6 -31 -9 -49 -1c-16 8 -29 25 -32 44c-2 24 11 49 39 59z" />
    <glyph glyph-name="periodcentered" unicode="&#xb7;" horiz-adv-x="461" 
d="M207 0h68l-50 -82c51 9 90 8 129 -22c29 -23 36 -53 35 -79c-3 -37 -18 -68 -57 -93c-64 -40 -185 -20 -262 12l25 55c41 -15 112 -36 148 -16c17 10 24 17 26 36c2 18 -8 30 -18 39c-20 17 -55 12 -90 3l-30 24z" />
    <glyph glyph-name="Acircumflex" unicode="&#xc2;" horiz-adv-x="747" 
d="M355 379c-8 -21 -42 -98 -20 -118c7 -7 29 -8 51 -8c9 0 18 0 26 1c12 5 17 2 24 14c0 8 0 7 -2 16l-47 168zM284 529c4 12 37 105 16 130c-7 7 -16 11 -28 8c-5 -1 -14 -6 -17 -16c-6 -21 7 -30 22 -34c-3 -22 -3 -42 -33 -55c-13 -5 -30 -5 -49 8c-33 23 -46 64 -46 94
c0 40 14 87 67 123c51 35 131 45 187 23c80 -30 97 -100 118 -178l108 -420c7 -24 17 -54 22 -66c14 -33 28 -45 51 -42c16 2 27 13 27 34c0 10 1 21 -14 41c-3 4 0 8 6 7c15 -2 24 -4 40 -24c8 -8 13 -22 16 -41c5 -33 -5 -78 -39 -113c-30 -31 -99 -49 -143 -37
c-55 16 -66 43 -101 115c-23 45 -84 64 -120 68c-26 3 -74 3 -99 -28c-83 -113 32 -91 23 -124c-2 -4 -14 -1 -25 -1c-20 1 -63 4 -103 4c-26 0 -77 -4 -100 -4c-10 0 -25 -3 -26 1c-7 34 49 -3 96 129zM315 1053h69l114 -173h-38l-110 114l-109 -114h-41z" />
    <glyph glyph-name="Ecircumflex" unicode="&#xca;" horiz-adv-x="599" 
d="M181 5c-39 0 -78 -4 -100 -4c-12 0 -25 -3 -26 1c-7 34 44 1 46 124c0 0 4 154 4 252c0 100 -4 258 -4 258c-2 123 -53 90 -46 124c1 4 14 2 26 1c22 -1 61 -5 100 -4c72 1 136 7 181 13c63 7 128 19 159 -32c19 -32 18 -75 -4 -110c-35 -54 -99 -73 -146 -67
c-8 1 -20 3 -28 6c-10 4 -24 10 -24 19c30 18 42 33 42 58c0 17 -8 36 -27 48c-2 1 -11 6 -31 6c-7 0 -27 0 -33 -7c-12 -71 -10 -122 -10 -125v-61c55 -61 111 -64 161 -50c39 10 57 19 88 64c14 -52 18 -121 -29 -173c-31 -33 -71 -45 -109 -39c-17 2 -38 10 -57 22
c-10 7 -29 22 -42 39c-10 11 -14 14 -14 3v-98c0 -2 2 -156 59 -188c18 -11 47 -10 65 1c19 11 30 30 30 49c0 14 -6 29 -20 39c-15 9 -26 5 -50 -6c13 46 39 68 77 81c35 12 85 13 122 -10c41 -26 53 -59 57 -100c3 -35 -5 -81 -41 -115c-57 -54 -164 -44 -217 -37
c0 0 -97 17 -159 18zM231 1053h70l113 -173h-38l-109 114l-110 -114h-40z" />
    <glyph glyph-name="Aacute" unicode="&#xc1;" horiz-adv-x="747" 
d="M357 379c-8 -21 -42 -98 -20 -118c7 -7 29 -8 51 -8c9 0 18 0 26 1c12 5 17 2 24 14c0 8 0 7 -2 16l-47 168zM286 529c4 12 37 105 16 130c-7 7 -16 11 -28 8c-5 -1 -14 -6 -17 -16c-6 -21 7 -30 22 -34c-3 -22 -3 -42 -33 -55c-13 -5 -30 -5 -49 8c-33 23 -46 64 -46 94
c0 40 14 87 67 123c51 35 131 45 187 23c81 -30 97 -100 118 -178l108 -420c7 -24 17 -54 22 -66c14 -33 28 -45 52 -42c15 2 26 13 26 34c0 10 1 21 -14 41c-3 4 0 8 6 7c15 -2 24 -4 40 -24c8 -8 13 -22 16 -41c5 -33 -5 -78 -39 -113c-30 -31 -98 -49 -143 -37
c-55 16 -66 43 -101 115c-23 45 -84 64 -120 68c-26 3 -74 3 -99 -28c-83 -113 32 -91 23 -124c-1 -4 -14 -1 -25 -1c-20 1 -63 4 -102 4c-27 0 -78 -4 -101 -4c-10 0 -24 -3 -26 1c-7 34 49 -3 97 129zM327 967c33 36 78 99 113 90c17 -4 26 -18 28 -30
c4 -32 -70 -78 -93 -93l-80 -54h-41z" />
    <glyph glyph-name="Edieresis" unicode="&#xcb;" horiz-adv-x="599" 
d="M181 5c-39 0 -78 -4 -100 -4c-12 0 -25 -3 -26 1c-7 34 44 1 46 124c0 0 4 154 4 252c0 100 -4 258 -4 258c-2 123 -53 90 -46 124c1 4 14 2 26 1c22 -1 61 -5 100 -4c72 1 136 7 181 13c63 7 128 19 159 -32c19 -32 18 -75 -4 -110c-35 -54 -99 -73 -146 -67
c-8 1 -20 3 -28 6c-10 4 -24 10 -24 19c30 18 42 33 42 58c0 17 -8 36 -27 48c-2 1 -11 6 -31 6c-7 0 -27 0 -33 -7c-12 -71 -10 -122 -10 -125v-61c55 -61 111 -64 161 -50c39 10 57 19 88 64c14 -52 18 -121 -29 -173c-31 -33 -71 -45 -109 -39c-17 2 -38 10 -57 22
c-10 7 -29 22 -42 39c-10 11 -14 14 -14 3v-98c0 -2 2 -156 59 -188c18 -11 47 -10 65 1c19 11 30 30 30 49c0 14 -6 29 -20 39c-15 9 -26 5 -50 -6c13 46 39 68 77 81c35 12 85 13 122 -10c41 -26 53 -59 57 -100c3 -35 -5 -81 -41 -115c-57 -54 -164 -44 -217 -37
c0 0 -97 17 -159 18zM168 991c15 4 33 3 49 -10c13 -10 23 -29 22 -46s-11 -34 -29 -46c-13 -6 -31 -9 -49 -1c-16 9 -29 25 -32 44c-2 25 11 49 39 59zM357 991c15 4 33 3 49 -10c13 -10 23 -29 22 -46s-11 -34 -29 -46c-13 -6 -31 -9 -49 -1c-16 9 -29 25 -32 44
c-2 25 12 49 39 59z" />
    <glyph glyph-name="Egrave" unicode="&#xc8;" horiz-adv-x="599" 
d="M181 5c-39 0 -78 -4 -100 -4c-12 0 -25 -3 -26 1c-7 34 44 1 46 124c0 0 4 154 4 252c0 100 -4 258 -4 258c-2 123 -53 90 -46 124c1 4 14 2 26 1c22 -1 61 -5 100 -4c72 1 136 7 181 13c63 7 128 19 159 -32c19 -32 18 -75 -4 -110c-35 -54 -99 -73 -146 -67
c-8 1 -20 3 -28 6c-10 4 -24 10 -24 19c30 18 42 33 42 58c0 17 -8 36 -27 48c-2 1 -11 6 -31 6c-7 0 -27 0 -33 -7c-12 -71 -10 -122 -10 -125v-61c55 -61 111 -64 161 -50c39 10 57 19 88 64c14 -52 18 -121 -29 -173c-31 -33 -71 -45 -109 -39c-17 2 -38 10 -57 22
c-10 7 -29 22 -42 39c-10 11 -14 14 -14 3v-98c0 -2 2 -156 59 -188c18 -11 47 -10 65 1c19 11 30 30 30 49c0 14 -6 29 -20 39c-15 9 -26 5 -50 -6c13 46 39 68 77 81c35 12 85 13 122 -10c41 -26 53 -59 57 -100c3 -35 -5 -81 -41 -115c-57 -54 -164 -44 -217 -37
c0 0 -97 17 -159 18zM373 880h-41l-80 54c-23 15 -97 61 -93 93c2 12 11 26 28 30c35 9 81 -54 113 -90z" />
    <glyph glyph-name="Iacute" unicode="&#xcd;" horiz-adv-x="309" 
d="M100 636c-2 123 -54 90 -46 124c1 4 14 2 26 1c22 -1 73 -4 100 -4c39 0 82 3 102 4c11 0 24 3 25 -1c9 -33 -46 -1 -47 -124c0 0 -3 -155 -3 -252c0 -100 3 -258 3 -258c1 -122 56 -91 47 -124c-1 -4 -14 -1 -25 -1c-20 1 -63 4 -102 4c-27 0 -78 -4 -100 -4
c-12 0 -25 -3 -26 1c-8 34 44 1 46 124c0 0 4 154 4 252c0 100 -4 258 -4 258zM132 967c32 36 78 99 113 90c16 -4 26 -18 28 -30c4 -32 -71 -78 -93 -93l-80 -54h-41z" />
    <glyph glyph-name="Icircumflex" unicode="&#xce;" horiz-adv-x="309" 
d="M94 636c-2 123 -54 90 -46 124c1 4 14 2 25 1c23 -1 74 -4 101 -4c39 0 82 3 102 4c11 0 24 3 25 -1c9 -33 -46 -1 -47 -124c0 0 -3 -155 -3 -252c0 -100 3 -258 3 -258c1 -122 56 -91 47 -124c-1 -4 -14 -1 -25 -1c-20 1 -63 4 -102 4c-27 0 -78 -4 -101 -4
c-11 0 -24 -3 -25 1c-8 34 44 1 46 124c0 0 4 154 4 252c0 100 -4 258 -4 258zM117 1053h69l114 -173h-39l-109 114l-110 -114h-40z" />
    <glyph glyph-name="Idieresis" unicode="&#xcf;" horiz-adv-x="309" 
d="M100 636c-2 123 -54 90 -46 124c1 4 14 2 26 1c22 -1 73 -4 100 -4c39 0 82 3 102 4c11 0 24 3 25 -1c9 -33 -46 -1 -47 -124c0 0 -3 -155 -3 -252c0 -100 3 -258 3 -258c1 -122 56 -91 47 -124c-1 -4 -14 -1 -25 -1c-20 1 -63 4 -102 4c-27 0 -78 -4 -100 -4
c-12 0 -25 -3 -26 1c-8 34 44 1 46 124c0 0 4 154 4 252c0 100 -4 258 -4 258zM60 985c14 4 33 3 48 -10c14 -10 23 -29 22 -46s-10 -34 -29 -46c-12 -6 -31 -9 -48 -1s-29 25 -32 44c-2 24 11 49 39 59zM249 985c14 4 33 3 49 -10c13 -10 22 -29 21 -46s-10 -34 -29 -46
c-12 -6 -31 -9 -48 -1s-29 25 -32 44c-2 24 11 49 39 59z" />
    <glyph glyph-name="Igrave" unicode="&#xcc;" horiz-adv-x="309" 
d="M100 636c-2 123 -54 90 -46 124c1 4 14 2 26 1c22 -1 73 -4 100 -4c39 0 82 3 102 4c11 0 24 3 25 -1c9 -33 -46 -1 -47 -124c0 0 -3 -155 -3 -252c0 -100 3 -258 3 -258c1 -122 56 -91 47 -124c-1 -4 -14 -1 -25 -1c-20 1 -63 4 -102 4c-27 0 -78 -4 -100 -4
c-12 0 -25 -3 -26 1c-8 34 44 1 46 124c0 0 4 154 4 252c0 100 -4 258 -4 258zM262 880h-41l-79 54c-23 15 -98 61 -93 93c2 12 11 26 27 30c36 9 81 -54 113 -90z" />
    <glyph glyph-name="Oacute" unicode="&#xd3;" horiz-adv-x="912" 
d="M420 799c98 11 267 -18 379 -150c100 -120 119 -266 80 -393c-42 -141 -159 -236 -289 -275c-99 -29 -269 -16 -372 75c-154 135 -162 307 -152 416c9 101 71 220 203 284c48 23 105 36 151 43zM533 430c-7 7 -15 9 -26 9c-15 -1 -28 -10 -35 -24c-8 -15 -6 -33 1 -46
c15 -26 40 -36 64 -37c40 -3 82 14 112 54c35 47 32 122 15 166c-30 79 -83 115 -152 130c-67 14 -143 4 -201 -55c-84 -84 -71 -232 -55 -306c21 -94 74 -188 173 -224c57 -21 130 -15 187 28c75 58 105 171 96 236c0 0 -13 -37 -16 -44c-30 -70 -89 -106 -148 -119
c-43 -9 -97 1 -137 42c-44 45 -57 126 -47 168c11 51 46 101 102 122c34 13 72 10 95 -6c26 -19 33 -42 32 -65c-1 -19 -6 -31 -9 -36c-10 -16 -21 -21 -33 -19c-5 5 -6 13 -18 26zM438 967c32 36 77 99 113 90c16 -4 25 -18 28 -30c4 -32 -71 -78 -93 -93l-80 -54h-41z" />
    <glyph glyph-name="Ocircumflex" unicode="&#xd4;" horiz-adv-x="912" 
d="M414 799c97 11 267 -18 378 -150c101 -120 120 -266 81 -393c-42 -141 -159 -236 -289 -275c-99 -29 -269 -16 -372 75c-154 135 -162 307 -152 416c9 101 71 220 202 284c49 23 106 36 152 43zM527 430c-7 7 -16 9 -26 9c-15 -1 -28 -10 -35 -24c-8 -15 -6 -33 1 -46
c14 -26 40 -36 64 -37c40 -3 82 14 112 54c35 47 32 122 15 166c-30 79 -84 115 -152 130c-67 14 -143 4 -201 -55c-84 -84 -72 -232 -55 -306c21 -94 73 -188 173 -224c56 -21 130 -15 187 28c75 58 105 171 96 236c0 0 -13 -37 -16 -44c-30 -70 -89 -106 -149 -119
c-42 -9 -96 1 -136 42c-44 45 -57 126 -48 168c12 51 47 101 103 122c34 13 72 10 95 -6c26 -19 33 -42 32 -65c-1 -19 -6 -31 -10 -36c-9 -16 -20 -21 -33 -19c-4 5 -5 13 -17 26zM410 1053h69l114 -173h-38l-110 114l-109 -114h-41z" />
    <glyph glyph-name="Ograve" unicode="&#xd2;" horiz-adv-x="912" 
d="M419 799c98 11 267 -18 379 -150c100 -120 119 -266 80 -393c-42 -141 -159 -236 -289 -275c-99 -29 -269 -16 -372 75c-154 135 -162 307 -152 416c9 101 71 220 203 284c48 23 105 36 151 43zM532 430c-7 7 -15 9 -26 9c-15 -1 -28 -10 -35 -24c-8 -15 -6 -33 1 -46
c15 -26 40 -36 64 -37c40 -3 82 14 112 54c35 47 32 122 15 166c-30 79 -83 115 -152 130c-67 14 -143 4 -201 -55c-84 -84 -71 -232 -55 -306c21 -94 74 -188 173 -224c57 -21 130 -15 187 28c75 58 105 171 96 236c0 0 -13 -37 -16 -44c-30 -70 -89 -106 -149 -119
c-42 -9 -96 1 -136 42c-44 45 -57 126 -47 168c11 51 46 101 102 122c34 13 72 10 95 -6c26 -19 33 -42 32 -65c-1 -19 -6 -31 -9 -36c-10 -16 -21 -21 -33 -19c-5 5 -6 13 -18 26zM549 883h-42l-79 54c-23 15 -97 61 -93 93c2 12 11 26 28 30c35 9 80 -54 112 -90z" />
    <glyph glyph-name="Uacute" unicode="&#xda;" horiz-adv-x="691" 
d="M635 126c0 -123 56 -91 47 -124c-1 -2 -15 -3 -25 -1c-43 5 -81 8 -146 -8c0 0 -2 -1 -5 1l-1 4s1 5 -1 11c-6 10 -15 6 -32 -1s-13 -6 -31 -14s-39 -17 -63 -22c-42 -7 -95 -5 -133 10c-153 63 -142 213 -143 314c0 24 1 61 1 82c0 100 -3 258 -3 258
c-2 123 -54 90 -46 124c1 4 14 2 26 1c22 -1 73 -4 100 -4c39 0 82 3 102 4c11 0 24 3 25 -1c9 -33 -46 -1 -47 -124c0 0 -3 -155 -3 -252v-77c1 -83 3 -167 70 -206c33 -16 78 -18 114 1c70 41 70 141 70 189v254c0 77 2 92 -13 103c-7 4 -17 5 -26 1
c-8 -4 -14 -11 -15 -23c0 -9 2 -15 7 -21c6 -7 13 -8 22 -8c11 0 11 -13 8 -24c-4 -15 -21 -30 -37 -35c-23 -6 -54 -1 -83 26c-37 33 -48 92 -39 132c8 44 38 82 86 98c40 13 103 9 150 -26c64 -48 73 -161 72 -264zM333 967c32 36 77 99 112 90c17 -4 26 -18 28 -30
c4 -32 -70 -78 -93 -93l-79 -54h-42z" />
    <glyph glyph-name="Ucircumflex" unicode="&#xdb;" horiz-adv-x="691" 
d="M632 126c0 -123 56 -91 47 -124c-1 -2 -15 -3 -25 -1c-43 5 -81 8 -146 -8c0 0 -2 -1 -5 1l-1 4s1 5 -1 11c-6 10 -15 6 -32 -1c-18 -7 -13 -6 -31 -14c-19 -8 -39 -17 -63 -22c-42 -7 -95 -5 -133 10c-153 63 -142 213 -143 314c0 24 1 61 1 82c0 100 -3 258 -3 258
c-2 123 -54 90 -46 124c1 4 14 2 25 1c23 -1 74 -4 101 -4c39 0 82 3 102 4c11 0 24 3 25 -1c9 -33 -46 -1 -47 -124c0 0 -3 -155 -3 -252v-77c1 -83 3 -167 70 -206c32 -16 78 -18 114 1c70 41 70 141 70 189v254c0 77 2 92 -13 103c-7 4 -17 5 -26 1
c-8 -4 -14 -11 -15 -23c0 -9 2 -15 7 -21c6 -7 13 -8 21 -8c12 0 12 -13 9 -24c-4 -15 -21 -30 -37 -35c-23 -6 -54 -1 -83 26c-37 33 -48 92 -39 132c8 44 38 82 86 98c40 13 103 9 150 -26c64 -48 72 -161 71 -264zM305 1053h69l114 -173h-39l-109 114l-110 -114h-40z" />
    <glyph glyph-name="Ugrave" unicode="&#xd9;" horiz-adv-x="691" 
d="M635 126c0 -123 56 -91 47 -124c-1 -2 -15 -3 -25 -1c-43 5 -81 8 -146 -8c0 0 -2 -1 -5 1l-1 4s1 5 -1 11c-6 10 -15 6 -32 -1s-13 -6 -31 -14s-39 -17 -63 -22c-42 -7 -95 -5 -133 10c-153 63 -142 213 -143 314c0 24 1 61 1 82c0 100 -3 258 -3 258
c-2 123 -54 90 -46 124c1 4 14 2 26 1c22 -1 73 -4 100 -4c39 0 82 3 102 4c11 0 24 3 25 -1c9 -33 -46 -1 -47 -124c0 0 -3 -155 -3 -252v-77c1 -83 3 -167 70 -206c33 -16 78 -18 114 1c70 41 70 141 70 189v254c0 77 2 92 -13 103c-7 4 -17 5 -26 1
c-8 -4 -14 -11 -15 -23c0 -9 2 -15 7 -21c6 -7 13 -8 22 -8c11 0 11 -13 8 -24c-4 -15 -21 -30 -37 -35c-23 -6 -54 -1 -83 26c-37 33 -48 92 -39 132c8 44 38 82 86 98c40 13 103 9 150 -26c64 -48 73 -161 72 -264zM413 883h-41l-80 54c-22 15 -97 61 -93 93
c2 12 12 26 28 30c35 9 81 -54 113 -90z" />
    <glyph glyph-name="dotlessi" unicode="&#x131;" horiz-adv-x="309" 
d="M100 636c-2 123 -54 90 -46 124c1 4 14 2 26 1c22 -1 73 -4 100 -4c39 0 82 3 102 4c11 0 24 3 25 -1c9 -33 -46 -1 -47 -124c0 0 -3 -155 -3 -252c0 -100 3 -258 3 -258c1 -122 56 -91 47 -124c-1 -4 -14 -1 -25 -1c-20 1 -63 4 -102 4c-27 0 -78 -4 -100 -4
c-12 0 -25 -3 -26 1c-8 34 44 1 46 124c0 0 4 154 4 252c0 100 -4 258 -4 258z" />
    <glyph glyph-name="circumflex" unicode="&#x2c6;" horiz-adv-x="346" 
d="M166 706h70l113 -173h-38l-110 114l-109 -114h-40z" />
    <glyph glyph-name="tilde" unicode="&#x2dc;" horiz-adv-x="364" 
d="M331 649h27c-8 -36 -26 -93 -70 -109c-55 -19 -81 18 -137 39c-19 7 -35 8 -51 -5c-8 -6 -13 -14 -25 -41h-30c11 42 27 94 77 107c62 19 80 -30 145 -43c17 -3 34 0 48 18c7 8 12 25 16 34z" />
    <glyph glyph-name="ring" unicode="&#x2da;" horiz-adv-x="257" 
d="M129 739c28 7 65 2 94 -24c27 -25 37 -63 33 -93c-5 -31 -24 -62 -61 -80c-31 -13 -67 -12 -95 4c-36 22 -49 52 -51 86c-1 27 13 67 45 91c10 6 21 13 35 16zM90 631c2 -21 15 -40 35 -50c19 -11 40 -8 55 0c25 13 35 34 36 50c2 22 -7 43 -24 56c-17 14 -40 17 -56 11
c-32 -9 -48 -39 -46 -67z" />
    </font>
</defs>
</svg>
